<svg width="614" height="555" viewBox="0 0 614 555" fill="none" xmlns="http://www.w3.org/2000/svg">
<path fill-rule="evenodd" clip-rule="evenodd" d="M98.6567 553.383C98.6567 553.383 -8.79095 540.168 8.89375 452.749C26.5784 365.33 36.6166 360.294 4.40863 257.7C-27.7993 155.107 175.223 40.6563 275.868 145.905C376.515 251.153 431.441 182.463 502.183 243.409C572.921 304.352 526.338 481.492 447.831 553.383H98.6567Z" fill="#FEEED3"/>
<path fill-rule="evenodd" clip-rule="evenodd" d="M155.666 553.383H164.438V509.529H155.666V553.383Z" fill="#222831"/>
<path fill-rule="evenodd" clip-rule="evenodd" d="M221.664 553.383H230.434V509.529H221.664V553.383Z" fill="#222831"/>
<path fill-rule="evenodd" clip-rule="evenodd" d="M302.396 553.383H311.168V509.529H302.396V553.383Z" fill="#222831"/>
<path fill-rule="evenodd" clip-rule="evenodd" d="M140.075 500.031L208.259 527.358L320.624 510.966L252.095 486.795L140.075 500.031Z" fill="#222831"/>
<path fill-rule="evenodd" clip-rule="evenodd" d="M260.772 492.324L140.075 500.031V337.401C140.075 330.517 145.509 324.885 152.154 324.885L248.696 319.45C255.338 319.45 260.772 325.083 260.772 331.967V492.324Z" fill="#222831"/>
<path fill-rule="evenodd" clip-rule="evenodd" d="M202.539 219.808C202.539 219.808 176.277 222.803 174.983 252.266L229.954 233.611C229.954 233.611 223.821 220.095 202.539 219.808Z" fill="#FCAA23"/>
<path fill-rule="evenodd" clip-rule="evenodd" d="M202.539 219.808L202.481 219.285C202.434 219.291 195.795 220.048 188.958 224.548C185.538 226.8 182.07 229.993 179.381 234.494C176.691 238.995 174.782 244.801 174.455 252.245L174.421 253.015L230.676 233.925L230.434 233.395C230.41 233.342 228.838 229.893 224.559 226.41C220.285 222.924 213.297 219.423 202.547 219.28H202.513L202.481 219.285L202.539 219.808L202.534 220.335C213.06 220.48 219.781 223.881 223.895 227.227C225.949 228.899 227.349 230.563 228.235 231.802C228.678 232.422 228.989 232.933 229.189 233.289C229.292 233.469 229.363 233.606 229.411 233.698C229.434 233.743 229.45 233.78 229.461 233.801L229.471 233.825L229.474 233.83L229.954 233.611L229.785 233.113L174.811 251.768L174.983 252.266L175.51 252.29C175.829 245.002 177.688 239.383 180.285 235.037C184.182 228.519 189.759 224.844 194.376 222.792C196.683 221.767 198.748 221.15 200.232 220.791C200.973 220.612 201.569 220.496 201.978 220.427C202.184 220.39 202.342 220.367 202.447 220.353C202.5 220.345 202.539 220.34 202.563 220.338L202.592 220.332H202.6L202.539 219.808L202.534 220.335L202.539 219.808Z" fill="black"/>
<path fill-rule="evenodd" clip-rule="evenodd" d="M68.131 384.251H168.214C168.504 384.251 168.742 384.017 168.742 383.724C168.742 383.434 168.504 383.197 168.214 383.197H68.131C67.841 383.197 67.6037 383.434 67.6037 383.724C67.6037 384.017 67.841 384.251 68.131 384.251Z" fill="black"/>
<path fill-rule="evenodd" clip-rule="evenodd" d="M187.832 263.77C187.832 263.77 182.561 258.792 175.207 265.996C164.652 276.332 173.451 312.959 193.981 297.365L187.832 263.77Z" fill="white"/>
<path fill-rule="evenodd" clip-rule="evenodd" d="M187.832 263.77L188.196 263.385C188.169 263.361 187.689 262.913 186.822 262.462C185.957 262.014 184.697 261.566 183.13 261.566C181.999 261.566 180.712 261.803 179.318 262.428C177.92 263.056 176.417 264.071 174.838 265.618C173.232 267.193 172.074 269.313 171.315 271.73C170.556 274.148 170.194 276.867 170.194 279.657C170.194 284.862 171.455 290.314 173.857 294.517C175.059 296.619 176.549 298.409 178.331 299.683C180.109 300.956 182.186 301.705 184.496 301.702C187.434 301.702 190.719 300.505 194.3 297.784L194.558 297.589L188.319 263.504L188.196 263.385L187.832 263.77L187.315 263.865L193.461 297.46L193.981 297.365L193.662 296.946C190.205 299.569 187.141 300.648 184.496 300.648C182.413 300.648 180.573 299.986 178.943 298.823C176.504 297.083 174.569 294.193 173.256 290.776C171.94 287.361 171.247 283.432 171.249 279.657C171.247 276.959 171.602 274.341 172.322 272.047C173.042 269.753 174.128 267.786 175.576 266.37C177.082 264.896 178.482 263.96 179.747 263.39C181.013 262.824 182.144 262.62 183.13 262.62C184.494 262.62 185.585 263.011 186.337 263.401C186.714 263.593 187.004 263.789 187.196 263.931C187.291 264.002 187.365 264.06 187.41 264.1L187.46 264.145L187.47 264.152L187.832 263.77L187.315 263.865L187.832 263.77Z" fill="black"/>
<path fill-rule="evenodd" clip-rule="evenodd" d="M160.779 387.89C160.779 387.89 170.819 360.927 170.938 361.667L175.647 390.73L160.779 387.89ZM273.974 364.207C273.974 364.207 275.715 357.728 278.122 353.027C278.649 351.998 291.111 366.596 291.111 366.596L273.974 364.207ZM326.04 358.551C326.04 358.551 290.823 301.067 269.038 306.377C247.256 311.685 245.099 310.174 245.099 310.174L238.629 296.374L193.77 314.058C193.77 314.058 183.513 312.764 172.573 312.118C161.633 311.469 153.438 324.626 149.124 340.8C144.81 356.977 118.498 400.111 145.027 403.776C171.555 407.444 309.803 402.698 320.442 392.346C331.081 381.994 326.04 358.551 326.04 358.551Z" fill="white"/>
<path fill-rule="evenodd" clip-rule="evenodd" d="M160.779 387.89L161.272 388.075C161.274 388.072 161.425 387.663 161.694 386.946C162.63 384.436 164.979 378.16 167.136 372.512C168.212 369.688 169.243 367.023 170.023 365.064C170.411 364.085 170.738 363.284 170.978 362.735C171.094 362.458 171.191 362.248 171.257 362.113C171.289 362.05 171.315 362.002 171.323 361.992V361.989L171.078 361.826L171.289 362.031C171.32 362 171.323 361.992 171.323 361.989L171.078 361.826L171.289 362.031L170.951 361.702L171.204 362.1C171.252 362.071 171.273 362.047 171.289 362.031L170.951 361.702L171.204 362.1L170.93 361.667V362.179C171.075 362.176 171.157 362.129 171.204 362.1L170.93 361.667V362.179V361.66L170.669 362.11C170.748 362.158 170.848 362.182 170.93 362.179V361.66L170.669 362.11L170.927 361.66L170.532 361.994C170.564 362.034 170.611 362.076 170.669 362.11L170.927 361.66L170.532 361.994L170.922 361.665L170.442 361.844C170.458 361.881 170.482 361.934 170.532 361.994L170.922 361.665L170.442 361.844L170.901 361.673L170.419 361.754C170.424 361.776 170.429 361.805 170.442 361.844L170.901 361.673L170.419 361.754V361.752L175.006 390.071L160.879 387.371L160.779 387.89L161.272 388.075L160.779 387.89L160.681 388.407L176.288 391.389L171.46 361.583V361.58C171.45 361.533 171.442 361.464 171.37 361.356C171.333 361.304 171.275 361.243 171.194 361.195C171.115 361.148 171.012 361.124 170.93 361.124C170.833 361.124 170.759 361.151 170.709 361.172C170.606 361.222 170.569 361.264 170.537 361.293C170.479 361.354 170.458 361.388 170.432 361.428C170.387 361.501 170.347 361.575 170.3 361.67C170.123 362.034 169.844 362.691 169.477 363.592C168.201 366.73 165.904 372.755 163.924 378C161.947 383.244 160.286 387.705 160.286 387.705L160.067 388.291L160.681 388.407L160.779 387.89ZM273.974 364.207L274.483 364.344C274.483 364.344 274.491 364.32 274.504 364.273C274.602 363.914 275.066 362.248 275.786 360.128C276.506 358.008 277.481 355.432 278.591 353.269V353.267L278.204 353.069L278.412 353.451C278.491 353.409 278.56 353.333 278.591 353.267L278.204 353.069L278.412 353.451L278.217 353.093V353.504C278.259 353.504 278.333 353.494 278.412 353.451L278.217 353.093V353.504V353.24L278.148 353.496C278.156 353.499 278.177 353.504 278.217 353.504V353.24L278.148 353.496L278.161 353.446L278.143 353.494L278.148 353.496L278.161 353.446L278.143 353.494C278.156 353.496 278.28 353.562 278.433 353.675C278.726 353.889 279.156 354.269 279.662 354.757C280.553 355.613 281.695 356.805 282.9 358.111C284.706 360.067 286.66 362.277 288.163 363.993C288.912 364.853 289.55 365.588 289.998 366.11C290.225 366.371 290.401 366.58 290.523 366.719C290.644 366.862 290.71 366.938 290.71 366.938L291.111 366.596L291.184 366.073L274.048 363.685L273.974 364.207L274.483 364.344L273.974 364.207L273.901 364.729L292.413 367.31L291.511 366.253C291.511 366.253 288.603 362.843 285.531 359.434C283.994 357.728 282.42 356.02 281.141 354.733C280.5 354.087 279.936 353.549 279.475 353.159C279.245 352.964 279.042 352.805 278.855 352.687C278.763 352.626 278.673 352.573 278.575 352.531C278.478 352.492 278.372 352.452 278.217 352.449C278.127 352.449 278.016 352.465 277.906 352.526C277.795 352.584 277.7 352.689 277.653 352.79V352.787C276.429 355.178 275.385 357.989 274.644 360.212C273.906 362.435 273.468 364.062 273.465 364.07L273.31 364.647L273.901 364.729L273.974 364.207ZM326.04 358.551L326.488 358.274C326.48 358.263 318.43 345.119 307.625 331.957C302.222 325.373 296.134 318.786 289.998 313.826C286.929 311.345 283.849 309.273 280.827 307.812C277.806 306.354 274.837 305.505 271.997 305.502C270.95 305.502 269.919 305.618 268.914 305.863C255.05 309.244 249.16 309.847 246.782 309.847C246.106 309.847 245.719 309.797 245.521 309.758C245.421 309.737 245.371 309.721 245.355 309.713H245.35L245.221 310.003L245.402 309.745C245.371 309.721 245.35 309.713 245.35 309.713L245.221 310.003L245.402 309.745L245.099 310.174L245.577 309.953L238.898 295.701L193.577 313.568L193.77 314.058L193.836 313.534C193.828 313.534 183.565 312.239 172.604 311.59C172.335 311.574 172.069 311.567 171.803 311.567C169.055 311.567 166.477 312.41 164.117 313.913C160.573 316.17 157.501 319.888 154.909 324.521C152.317 329.154 150.205 334.709 148.615 340.666C147.903 343.342 146.559 346.82 144.945 350.746C142.524 356.642 139.495 363.558 137.069 370.427C134.643 377.298 132.813 384.117 132.811 389.875C132.811 391.737 133.003 393.488 133.435 395.096C134.087 397.506 135.289 399.594 137.182 401.182C139.075 402.769 141.636 403.842 144.955 404.301C147.993 404.72 152.439 405.026 157.97 405.229C163.502 405.435 170.115 405.535 177.467 405.535C202.566 405.535 236.258 404.37 264.719 402.205C278.952 401.124 291.873 399.79 301.766 398.223C306.715 397.44 310.905 396.599 314.135 395.697C315.751 395.246 317.125 394.78 318.243 394.292C319.358 393.802 320.218 393.298 320.808 392.726C323.63 389.978 325.362 386.369 326.396 382.543C327.427 378.714 327.759 374.661 327.759 370.994C327.759 364.041 326.559 358.461 326.554 358.44L326.535 358.35L326.488 358.274L326.04 358.551L325.523 358.662C325.523 358.662 325.528 358.68 325.536 358.722C325.663 359.334 326.707 364.589 326.704 370.994C326.707 374.598 326.374 378.566 325.375 382.268C324.378 385.97 322.715 389.401 320.073 391.969C319.635 392.396 318.87 392.868 317.818 393.324C315.846 394.189 312.885 395.028 309.143 395.816C302.594 397.195 293.65 398.429 283.287 399.502C252.195 402.719 208.311 404.48 177.467 404.48C170.126 404.48 163.523 404.38 158.01 404.177C152.499 403.974 148.069 403.666 145.1 403.254C142.983 402.962 141.23 402.416 139.793 401.659C137.636 400.525 136.175 398.927 135.228 396.939C134.284 394.951 133.865 392.56 133.865 389.875C133.863 386.184 134.656 381.957 135.903 377.53C137.77 370.886 140.65 363.798 143.339 357.348C146.029 350.894 148.526 345.09 149.636 340.937C151.727 333.085 154.743 325.961 158.511 320.837C160.394 318.274 162.461 316.215 164.681 314.804C166.904 313.391 169.272 312.621 171.803 312.621C172.048 312.621 172.293 312.629 172.541 312.642C178.002 312.967 183.294 313.449 187.22 313.855C189.182 314.056 190.806 314.238 191.934 314.369C192.501 314.435 192.942 314.488 193.245 314.525C193.545 314.562 193.704 314.58 193.704 314.58L193.838 314.599L238.362 297.046L244.683 310.528L244.796 310.607C244.883 310.665 245.02 310.731 245.313 310.791C245.606 310.849 246.059 310.902 246.782 310.902C249.326 310.899 255.256 310.277 269.165 306.889C270.082 306.665 271.026 306.557 271.997 306.557C274.623 306.557 277.444 307.348 280.368 308.761C285.484 311.232 290.894 315.595 296.105 320.756C303.923 328.497 311.3 338.021 316.719 345.604C319.427 349.396 321.644 352.702 323.187 355.062C323.957 356.241 324.558 357.182 324.966 357.828C325.169 358.153 325.328 358.403 325.431 358.572C325.536 358.738 325.589 358.825 325.589 358.825L326.04 358.551L325.523 358.662L326.04 358.551Z" fill="black"/>
<path fill-rule="evenodd" clip-rule="evenodd" d="M208.491 315.16C208.491 315.16 217.685 318.923 227.175 315.854C236.664 312.787 230.241 326.686 236.759 326.016C243.277 325.344 256.421 315.279 256.421 309.816C256.421 309.816 252.216 310.657 252.29 309.288C252.572 303.891 244.459 293.27 237.432 295.577C228.229 298.602 208.491 315.16 208.491 315.16Z" fill="#FCAA23"/>
<path fill-rule="evenodd" clip-rule="evenodd" d="M208.063 312.598C205.298 323.825 195.81 328.067 191.792 327.801C190.321 327.706 189.585 327.007 190.173 325.823C192.38 321.412 189.327 304.89 189.327 304.89C189.327 304.89 204.976 299.585 207.987 306.712C208.593 308.134 208.691 310.048 208.063 312.598Z" fill="#222831"/>
<path fill-rule="evenodd" clip-rule="evenodd" d="M178.242 261.363C178.242 261.363 177.163 269.555 181.619 283.071C186.078 296.587 179.104 298.169 195.926 309.961C212.749 321.75 226.12 312.118 238.341 300.326C250.563 288.537 234.89 255.035 231.441 254.03C229.524 253.471 216.804 234.059 204.074 234.858C193.875 235.496 183.805 255.414 178.242 261.363Z" fill="white"/>
<path fill-rule="evenodd" clip-rule="evenodd" d="M178.242 261.363L177.717 261.292C177.714 261.313 177.598 262.209 177.598 263.876C177.598 267.322 178.097 274.072 181.119 283.237C182.218 286.573 182.611 289.157 182.846 291.372C183.022 293.033 183.107 294.488 183.336 295.896C183.507 296.954 183.766 297.985 184.209 299.031C184.876 300.606 185.957 302.203 187.75 304.023C189.546 305.845 192.058 307.894 195.623 310.391C201.102 314.235 206.273 315.857 211.167 315.857C216.324 315.857 221.144 314.061 225.695 311.276C230.249 308.492 234.55 304.716 238.708 300.706C240.445 299.031 241.635 296.938 242.386 294.599C243.14 292.255 243.457 289.663 243.459 286.952C243.454 279.715 241.192 271.622 238.616 265.22C237.329 262.019 235.96 259.245 234.747 257.207C234.141 256.187 233.574 255.354 233.063 254.734C232.804 254.423 232.562 254.164 232.327 253.961C232.09 253.761 231.863 253.605 231.589 253.521L231.573 253.571L231.594 253.524L231.589 253.521L231.573 253.571L231.594 253.524C231.586 253.521 231.541 253.5 231.48 253.455C231.362 253.371 231.177 253.21 230.958 252.994C230.547 252.59 229.999 251.986 229.347 251.251C227.061 248.669 223.473 244.453 219.206 240.873C217.071 239.082 214.763 237.447 212.348 236.253C209.933 235.061 207.407 234.307 204.841 234.307C204.575 234.307 204.309 234.315 204.04 234.331C202.682 234.418 201.342 234.821 200.032 235.462C197.738 236.585 195.523 238.428 193.401 240.635C190.215 243.944 187.233 248.076 184.586 251.868C183.265 253.764 182.026 255.572 180.894 257.144C179.766 258.718 178.74 260.058 177.857 261.002L177.741 261.125L177.717 261.292L178.242 261.363L178.627 261.721C180.059 260.187 181.733 257.819 183.623 255.103C186.453 251.029 189.754 246.18 193.274 242.312C195.035 240.377 196.849 238.689 198.671 237.469C200.496 236.248 202.321 235.496 204.106 235.383C204.351 235.37 204.596 235.362 204.841 235.362C207.826 235.359 210.845 236.482 213.725 238.209C218.044 240.796 222.03 244.728 225.1 248.071C226.637 249.743 227.945 251.267 228.965 252.406C229.474 252.975 229.912 253.45 230.281 253.806C230.465 253.985 230.631 254.133 230.79 254.254C230.95 254.375 231.09 254.473 231.293 254.534C231.333 254.544 231.47 254.615 231.639 254.763C231.963 255.037 232.406 255.559 232.896 256.269C233.764 257.513 234.798 259.34 235.855 261.553C237.442 264.87 239.082 269.059 240.324 273.5C241.563 277.94 242.405 282.633 242.405 286.952C242.405 289.579 242.093 292.068 241.381 294.275C240.672 296.484 239.567 298.409 237.975 299.946C233.843 303.933 229.59 307.659 225.144 310.377C220.699 313.093 216.074 314.802 211.167 314.802C206.51 314.799 201.574 313.273 196.23 309.528C192.043 306.594 189.353 304.305 187.615 302.335C186.313 300.859 185.543 299.569 185.053 298.301C184.686 297.352 184.472 296.405 184.325 295.393C183.877 292.353 184.024 288.677 182.12 282.905C179.136 273.856 178.653 267.222 178.653 263.876C178.653 263.066 178.682 262.449 178.709 262.038C178.724 261.832 178.738 261.677 178.748 261.576C178.753 261.524 178.756 261.487 178.759 261.463L178.764 261.437V261.431L178.242 261.363L178.627 261.721L178.242 261.363Z" fill="black"/>
<path fill-rule="evenodd" clip-rule="evenodd" d="M180.074 274.808C180.074 274.808 199.128 263.129 217.78 268.909C217.78 268.909 222.956 270.91 224.97 275.082C226.982 279.251 229.856 281.716 231.945 292.563C233.885 302.649 232.538 304.803 232.538 304.803C232.538 304.803 242.99 296.036 243.491 294.135C243.994 292.234 249.36 256.134 232.456 243.04C215.552 229.946 203.905 231.238 203.905 231.238L177.954 265.495L180.074 274.808Z" fill="#FCAA23"/>
<path fill-rule="evenodd" clip-rule="evenodd" d="M186.041 313.824C186.041 313.824 186.782 342.395 187.228 346.264C187.673 350.134 204.267 376.096 226.312 369.652C248.358 363.207 229.477 386.635 209.155 381.295C188.834 375.956 186.12 354.506 186.215 349.712C186.313 344.921 184.515 313.663 184.515 313.663L186.041 313.824Z" fill="#FCAA23"/>
<path fill-rule="evenodd" clip-rule="evenodd" d="M254.014 310.776C249.223 320.84 234.747 327.453 236.991 323.142C239.24 318.826 236.991 288.735 236.991 288.735C236.991 288.735 241.255 286.607 243.826 281.241C245.118 278.552 245.988 275.045 245.674 270.583C245.545 268.743 240.121 275.696 238.484 273.344C233.756 272.44 231.425 268.572 225.941 265.901L225.938 265.898C222.281 264.113 217.221 262.863 209.116 263.375C209.116 263.375 204.696 256.472 202.827 239.509C202.827 239.509 200.599 252.237 205.058 264.319C205.058 264.319 180.937 264.704 178.126 274.589C178.126 274.589 162.569 265.241 184.712 236.775C186.7 234.215 188.799 232.177 190.98 230.597C193.161 229.02 195.423 227.902 197.733 227.19C199.18 226.687 200.623 226.294 202.041 225.991C213.669 223.512 223.723 227.19 223.723 227.19C249.837 231.412 256.669 263.678 256.867 287.166C256.965 298.341 255.559 307.53 254.014 310.776Z" fill="#222831"/>
<path fill-rule="evenodd" clip-rule="evenodd" d="M245.946 254.215C245.946 254.215 240.675 249.236 233.318 256.44C222.766 266.776 231.562 303.406 252.095 287.809L245.946 254.215Z" fill="white"/>
<path fill-rule="evenodd" clip-rule="evenodd" d="M245.946 254.215L246.307 253.832C246.281 253.808 245.803 253.358 244.936 252.909C244.068 252.461 242.811 252.013 241.244 252.013C240.113 252.01 238.824 252.248 237.429 252.875C236.034 253.503 234.531 254.515 232.949 256.063C231.346 257.637 230.188 259.76 229.429 262.178C228.67 264.595 228.306 267.314 228.306 270.104C228.308 275.309 229.569 280.761 231.971 284.964C233.171 287.063 234.663 288.854 236.445 290.127C238.223 291.401 240.3 292.15 242.61 292.15C245.548 292.15 248.833 290.95 252.414 288.231L252.672 288.034L246.433 253.951L246.307 253.832L245.946 254.215L245.426 254.309L251.575 287.904L252.095 287.809L251.776 287.39C248.316 290.016 245.252 291.095 242.61 291.095C240.527 291.092 238.684 290.433 237.057 289.27C234.618 287.53 232.683 284.637 231.367 281.22C230.054 277.808 229.36 273.877 229.36 270.104C229.36 267.406 229.714 264.788 230.436 262.494C231.156 260.197 232.242 258.233 233.687 256.817C235.196 255.34 236.596 254.404 237.861 253.838C239.127 253.268 240.258 253.068 241.244 253.068C242.605 253.068 243.697 253.455 244.451 253.845C244.828 254.041 245.118 254.236 245.31 254.378C245.405 254.449 245.476 254.507 245.524 254.547L245.574 254.589L245.584 254.6L245.946 254.215L245.426 254.309L245.946 254.215Z" fill="black"/>
<path fill-rule="evenodd" clip-rule="evenodd" d="M263.414 308.344C263.414 308.344 262.568 338.836 261.946 342.311C261.323 345.786 274.214 352.125 274.61 360.067L273.352 363.877L260.435 343.521C260.435 343.521 262.713 319.271 262.354 308.521L263.414 308.344Z" fill="#FCAA23"/>
<path fill-rule="evenodd" clip-rule="evenodd" d="M257.845 269.03C259.815 278.415 256.59 287.034 250.642 288.284C244.691 289.534 238.27 282.939 236.3 273.555C234.328 264.171 237.556 255.551 243.504 254.302C249.455 253.052 255.876 259.646 257.845 269.03Z" fill="#FCAA23"/>
<path fill-rule="evenodd" clip-rule="evenodd" d="M257.845 269.03L257.329 269.139C257.713 270.971 257.895 272.775 257.895 274.491C257.898 277.948 257.154 281.065 255.857 283.406C255.209 284.577 254.425 285.555 253.532 286.293C252.635 287.034 251.636 287.538 250.534 287.77C250.083 287.862 249.629 287.91 249.173 287.91C247.899 287.91 246.607 287.546 245.347 286.86C243.459 285.832 241.653 284.068 240.161 281.763C238.666 279.459 237.482 276.616 236.817 273.447C236.432 271.614 236.248 269.814 236.248 268.094C236.248 264.638 236.991 261.521 238.289 259.18C238.935 258.009 239.72 257.031 240.614 256.292C241.508 255.551 242.51 255.05 243.612 254.818C244.063 254.723 244.517 254.676 244.97 254.676C246.246 254.676 247.538 255.04 248.799 255.725C250.687 256.754 252.49 258.518 253.985 260.822C255.48 263.127 256.664 265.969 257.329 269.139L258.362 268.922C257.439 264.532 255.565 260.735 253.191 258.011C252.005 256.651 250.692 255.557 249.302 254.8C247.915 254.043 246.447 253.621 244.97 253.621C244.445 253.621 243.918 253.677 243.396 253.785C242.117 254.054 240.954 254.642 239.942 255.48C238.423 256.735 237.242 258.544 236.432 260.706C235.625 262.868 235.193 265.389 235.193 268.094C235.193 269.887 235.385 271.76 235.784 273.663C236.706 278.053 238.581 281.85 240.954 284.574C242.141 285.935 243.454 287.029 244.844 287.786C246.23 288.542 247.696 288.964 249.173 288.964C249.7 288.964 250.228 288.912 250.75 288.801C252.029 288.532 253.191 287.944 254.204 287.108C255.723 285.85 256.904 284.042 257.711 281.879C258.518 279.717 258.95 277.196 258.95 274.491C258.95 272.698 258.76 270.826 258.362 268.922L257.845 269.03Z" fill="black"/>
<path fill-rule="evenodd" clip-rule="evenodd" d="M247.77 254.676C247.77 254.676 233.598 213.627 202.539 219.808C202.539 219.808 230.729 222.856 240.685 255.57C240.685 255.57 243.167 266.468 248.551 262.924C248.551 262.924 250.755 261.505 247.77 254.676Z" fill="#FCE4E2"/>
<path fill-rule="evenodd" clip-rule="evenodd" d="M247.77 254.676L248.269 254.505C248.258 254.476 245.181 245.563 238.732 236.617C235.507 232.145 231.433 227.66 226.463 224.285C221.492 220.91 215.61 218.645 208.818 218.647C206.771 218.647 204.644 218.85 202.437 219.291L199.064 219.963L202.484 220.332L202.5 220.335C202.88 220.377 209.891 221.255 217.999 226.104C222.051 228.527 226.381 231.942 230.305 236.743C234.228 241.548 237.748 247.736 240.179 255.723L240.685 255.57L240.171 255.686C240.177 255.707 240.638 257.748 241.619 259.826C242.112 260.864 242.729 261.916 243.517 262.739C243.91 263.148 244.348 263.501 244.841 263.754C245.331 264.007 245.877 264.16 246.46 264.16C247.222 264.16 248.023 263.905 248.841 263.364L248.551 262.924L248.836 263.367C248.896 263.327 249.163 263.137 249.405 262.692C249.648 262.251 249.861 261.566 249.861 260.564C249.861 259.206 249.476 257.268 248.253 254.465L247.77 254.676L248.269 254.505L247.77 254.676L247.288 254.887C248.472 257.6 248.807 259.409 248.807 260.564C248.807 261.418 248.627 261.914 248.48 262.185C248.406 262.323 248.335 262.407 248.292 262.449L248.25 262.489V262.491L248.393 262.679L248.266 262.481L248.25 262.491L248.393 262.679L248.266 262.481L248.261 262.483C247.573 262.934 246.982 263.103 246.46 263.106C246.059 263.103 245.687 263.005 245.323 262.818C244.688 262.491 244.087 261.882 243.567 261.128C242.782 260 242.18 258.57 241.785 257.431C241.587 256.862 241.44 256.363 241.342 256.01C241.294 255.834 241.258 255.691 241.234 255.596C241.221 255.549 241.213 255.512 241.207 255.488L241.2 255.459V255.454L241.194 255.435L241.189 255.417C238.681 247.174 235.016 240.783 230.932 235.844C224.802 228.435 217.725 224.295 212.185 222.009C206.645 219.726 202.632 219.288 202.598 219.285L202.54 219.808L202.642 220.327C204.786 219.9 206.843 219.702 208.818 219.702C215.373 219.702 221.034 221.877 225.869 225.158C233.121 230.078 238.489 237.505 242.025 243.704C243.794 246.805 245.11 249.595 245.977 251.609C246.412 252.617 246.737 253.429 246.953 253.988C247.061 254.267 247.14 254.483 247.193 254.631C247.219 254.702 247.24 254.758 247.254 254.795C247.267 254.832 247.272 254.847 247.272 254.847L247.277 254.868L247.288 254.887L247.77 254.676Z" fill="black"/>
<path fill-rule="evenodd" clip-rule="evenodd" d="M194.674 282.277C194.674 282.277 194.698 282.412 194.737 282.655C194.882 283.509 195.244 285.711 195.571 288.192C195.895 290.673 196.182 293.436 196.182 295.387C196.182 295.944 196.159 296.434 196.108 296.824C196.09 296.983 196.079 297.133 196.079 297.275C196.079 297.565 196.122 297.824 196.211 298.053C196.343 298.399 196.596 298.662 196.894 298.81C197.192 298.96 197.524 299.013 197.864 299.013C198.334 299.013 198.83 298.913 199.32 298.773C200.789 298.346 202.218 297.526 202.231 297.518C202.421 297.41 202.487 297.167 202.379 296.977C202.271 296.788 202.028 296.722 201.838 296.832L201.814 296.846C201.68 296.919 201.042 297.27 200.256 297.6C199.863 297.763 199.433 297.921 199.017 298.037C198.6 298.151 198.197 298.222 197.864 298.222C197.693 298.222 197.54 298.203 197.419 298.169C197.232 298.114 197.116 298.035 197.026 297.913C196.939 297.79 196.87 297.594 196.87 297.275C196.87 297.17 196.876 297.054 196.894 296.925C196.95 296.484 196.973 295.968 196.973 295.387C196.973 293.075 196.591 289.776 196.211 287.039C195.832 284.308 195.455 282.146 195.452 282.14C195.415 281.927 195.209 281.782 194.996 281.821C194.78 281.858 194.637 282.064 194.674 282.277Z" fill="black"/>
<path fill-rule="evenodd" clip-rule="evenodd" d="M202.413 306.277C202.429 306.28 202.576 306.301 202.843 306.301C203.528 306.301 205.01 306.166 207.096 305.27C209.184 304.373 211.876 302.718 215.001 299.675C215.156 299.522 215.159 299.271 215.006 299.116C214.856 298.96 214.605 298.955 214.447 299.108C211.386 302.093 208.773 303.691 206.785 304.545C204.794 305.397 203.428 305.507 202.843 305.51C202.729 305.51 202.645 305.505 202.592 305.499C202.566 305.499 202.545 305.497 202.534 305.497L202.524 305.494L202.518 305.531L202.524 305.494L202.518 305.531L202.524 305.494C202.307 305.462 202.107 305.613 202.075 305.829C202.046 306.045 202.197 306.246 202.413 306.277Z" fill="black"/>
<path fill-rule="evenodd" clip-rule="evenodd" d="M173.066 394.287C173.066 394.287 164.813 386.318 175.798 361.538C181.356 348.998 184.52 344.42 184.52 344.42C184.52 344.42 193.482 381.132 219.794 372.362C246.107 363.59 259.478 342.453 259.478 342.453C259.478 342.453 275.58 359.722 275.58 371.637C275.58 371.637 250.252 370.348 242.932 381.348C235.61 392.346 172.562 412.691 173.066 394.287Z" fill="#FCAA23"/>
<path fill-rule="evenodd" clip-rule="evenodd" d="M173.066 394.287L173.432 393.91L173.266 394.081L173.432 393.91L173.266 394.081L173.432 393.91C173.43 393.907 172.728 393.216 172.027 391.603C171.323 389.991 170.616 387.458 170.616 383.756C170.616 378.748 171.911 371.603 176.277 361.752C179.054 355.492 181.227 351.226 182.706 348.529C183.444 347.181 184.008 346.224 184.388 345.607C184.578 345.299 184.72 345.074 184.815 344.929C184.863 344.856 184.897 344.803 184.921 344.769L184.947 344.729L184.952 344.718L184.52 344.42L184.008 344.544C184.016 344.573 185.809 351.935 190.176 359.337C192.362 363.036 195.191 366.749 198.785 369.554C202.379 372.357 206.753 374.245 211.953 374.242C214.437 374.242 217.105 373.812 219.961 372.861C233.213 368.444 243.196 360.919 249.869 354.498C256.54 348.078 259.907 342.762 259.923 342.736L259.478 342.453L259.093 342.815C259.093 342.815 259.106 342.831 259.137 342.862C259.599 343.363 263.599 347.745 267.472 353.422C269.408 356.262 271.311 359.424 272.725 362.575C274.138 365.725 275.055 368.866 275.053 371.637H275.58L275.609 371.11C275.601 371.11 274.681 371.062 273.141 371.062C269.856 371.062 263.757 371.273 257.7 372.613C254.671 373.282 251.652 374.232 248.996 375.595C246.341 376.955 244.042 378.727 242.492 381.056C241.896 381.952 240.846 382.978 239.428 384.046C236.946 385.918 233.35 387.937 229.11 389.899C222.748 392.844 214.93 395.666 207.185 397.749C199.444 399.829 191.766 401.169 185.712 401.169C182.004 401.171 178.912 400.66 176.813 399.571C175.763 399.025 174.964 398.347 174.424 397.519C173.883 396.691 173.591 395.711 173.588 394.506C173.588 394.437 173.591 394.371 173.593 394.303L173.599 394.071L173.432 393.91L173.066 394.287L172.539 394.274C172.536 394.35 172.533 394.429 172.533 394.506C172.533 395.885 172.881 397.092 173.541 398.097C174.034 398.851 174.695 399.489 175.489 400.016C176.684 400.805 178.171 401.353 179.892 401.707C181.614 402.063 183.573 402.223 185.712 402.223C190.439 402.223 196.056 401.432 201.917 400.13C210.706 398.176 220.037 395.067 227.678 391.703C231.499 390.02 234.898 388.278 237.6 386.574C238.953 385.723 240.129 384.881 241.102 384.059C242.075 383.236 242.842 382.432 243.37 381.641C244.786 379.51 246.929 377.836 249.476 376.534C253.294 374.574 257.998 373.462 262.354 372.85C266.707 372.236 270.713 372.117 273.141 372.117C273.901 372.117 274.504 372.127 274.921 372.141C275.127 372.146 275.287 372.151 275.393 372.156C275.448 372.156 275.488 372.159 275.514 372.162C275.543 372.162 275.554 372.162 275.554 372.162L276.108 372.191V371.637C276.108 368.539 275.071 365.166 273.545 361.831C271.251 356.829 267.836 351.906 264.991 348.223C262.146 344.542 259.87 342.103 259.862 342.095L259.398 341.597L259.032 342.171L259.024 342.185C258.834 342.48 255.414 347.764 248.825 354.037C242.236 360.312 232.482 367.576 219.628 371.861C216.868 372.781 214.315 373.187 211.953 373.187C207.011 373.185 202.888 371.41 199.433 368.721C194.257 364.689 190.637 358.58 188.333 353.472C187.178 350.92 186.352 348.618 185.815 346.96C185.546 346.132 185.351 345.462 185.221 345.001C185.155 344.771 185.108 344.595 185.076 344.473C185.06 344.413 185.05 344.368 185.042 344.339C185.034 344.307 185.031 344.294 185.031 344.294L184.752 343.155L184.085 344.12C184.064 344.154 180.884 348.758 175.315 361.325C170.904 371.276 169.562 378.566 169.562 383.756C169.562 387.653 170.321 390.363 171.096 392.109C171.869 393.852 172.657 394.627 172.699 394.666L173.066 394.287L172.539 394.274L173.066 394.287Z" fill="black"/>
<path fill-rule="evenodd" clip-rule="evenodd" d="M278.792 352.47C278.792 352.47 289.471 363.015 293.381 368.718C297.291 374.421 302.42 368.191 302.42 368.191C302.42 368.191 288.432 351.84 286.844 348.924C284.782 345.138 281.334 345.763 278.792 352.47Z" fill="#FCAA23"/>
<path fill-rule="evenodd" clip-rule="evenodd" d="M182.679 312.002C182.679 312.002 184.185 329.37 184.52 344.42L182.679 312.002Z" fill="#FEF9E6"/>
<path fill-rule="evenodd" clip-rule="evenodd" d="M182.155 312.046C182.155 312.046 182.178 312.315 182.221 312.819C182.511 316.344 183.7 331.284 183.993 344.431C183.998 344.724 184.24 344.953 184.53 344.948C184.823 344.94 185.053 344.7 185.047 344.407C184.71 329.336 183.207 311.962 183.207 311.954C183.18 311.664 182.925 311.451 182.635 311.474C182.345 311.501 182.131 311.756 182.155 312.046Z" fill="black"/>
<path fill-rule="evenodd" clip-rule="evenodd" d="M167.078 437.45C167.078 437.45 161.129 466.755 162.432 485.481C162.651 488.643 167.7 488.495 168.781 485.518L327.126 463.807C327.126 463.807 294.921 448.638 295.137 424.554C295.324 403.56 167.078 437.45 167.078 437.45Z" fill="#FCAA23"/>
<path fill-rule="evenodd" clip-rule="evenodd" d="M167.078 437.45L166.561 437.345C166.558 437.35 165.351 443.312 164.14 451.581C162.93 459.852 161.717 470.426 161.717 479.675C161.717 481.698 161.775 483.659 161.904 485.518C161.936 485.98 162.057 486.399 162.255 486.758C162.55 487.301 163.007 487.702 163.531 487.955C164.053 488.21 164.644 488.329 165.243 488.329C166.057 488.329 166.891 488.11 167.618 487.675C168.341 487.24 168.958 486.576 169.277 485.698L168.781 485.518L168.852 486.04L328.961 464.087L327.353 463.33L327.332 463.32C326.87 463.101 318.913 459.256 311.1 452.559C307.192 449.213 303.324 445.152 300.442 440.491C297.56 435.826 295.662 430.568 295.662 424.794C295.662 424.715 295.662 424.638 295.662 424.559L295.664 424.507C295.664 423.829 295.54 423.188 295.295 422.598C294.868 421.564 294.085 420.707 293.035 420.016C291.459 418.977 289.278 418.279 286.591 417.822C283.904 417.369 280.709 417.166 277.115 417.166C268.247 417.166 256.944 418.405 244.96 420.259C209.01 425.822 166.951 436.939 166.943 436.939L166.627 437.023L166.561 437.345L167.078 437.45L167.212 437.959C167.212 437.959 167.502 437.883 168.059 437.738C172.225 436.654 191.246 431.773 213.355 427.162C224.409 424.857 236.232 422.621 247.354 420.963C258.473 419.302 268.891 418.221 277.115 418.221C282.531 418.218 286.995 418.695 290.037 419.75C291.559 420.275 292.716 420.944 293.473 421.73C293.85 422.123 294.132 422.542 294.32 423.001C294.509 423.46 294.607 423.955 294.61 424.507V424.549C294.607 424.63 294.607 424.712 294.607 424.794C294.607 430.901 296.648 436.43 299.685 441.271C304.247 448.535 311.044 454.273 316.703 458.21C322.361 462.144 326.883 464.274 326.902 464.285L327.126 463.807L327.055 463.283L168.394 485.038L168.285 485.336C168.056 485.964 167.624 486.441 167.073 486.771C166.527 487.103 165.865 487.277 165.243 487.274C164.631 487.277 164.064 487.108 163.666 486.808C163.465 486.657 163.302 486.475 163.181 486.254C163.059 486.033 162.98 485.769 162.957 485.447C162.83 483.615 162.772 481.679 162.772 479.675C162.772 470.515 163.977 459.973 165.182 451.734C165.786 447.612 166.39 444.066 166.84 441.551C167.067 440.293 167.257 439.293 167.389 438.608C167.455 438.265 167.505 438.001 167.539 437.825C167.576 437.645 167.595 437.556 167.595 437.553L167.078 437.45L167.212 437.959L167.078 437.45Z" fill="black"/>
<path fill-rule="evenodd" clip-rule="evenodd" d="M102.082 429.443H580.444L494.607 383.724H168.214" fill="#FEEED3"/>
<path fill-rule="evenodd" clip-rule="evenodd" d="M102.082 429.97H582.556L494.739 383.197H168.214C167.922 383.197 167.687 383.434 167.687 383.724C167.687 384.017 167.922 384.251 168.214 384.251H494.475L578.332 428.915H102.082C101.792 428.915 101.555 429.152 101.555 429.443C101.555 429.733 101.792 429.97 102.082 429.97Z" fill="black"/>
<path fill-rule="evenodd" clip-rule="evenodd" d="M400.807 409.058C400.807 409.058 390.606 419.407 402.685 421.419C414.761 423.431 495.651 429.825 500.93 410.094C506.206 390.361 458.945 396.544 458.945 396.544L400.807 409.058Z" fill="#FCAA23"/>
<path fill-rule="evenodd" clip-rule="evenodd" d="M260.435 401.061C260.435 401.061 293.842 408.886 310.016 409.303C326.193 409.72 389.82 410.276 419.362 405.588C448.904 400.902 367.17 394.258 367.17 394.258L260.435 401.061Z" fill="#FCAA23"/>
<path fill-rule="evenodd" clip-rule="evenodd" d="M139.708 408.594L119.434 422.83L181.403 420.528V424.554H195.639V420.528L259.478 421.965L257.524 402.197L256.891 394.287L216.2 399.679L175.449 400.686L146.044 403.908L139.708 408.594Z" fill="black"/>
<path fill-rule="evenodd" clip-rule="evenodd" d="M256.891 418.99L255.166 394.516L249.917 395.212L244.812 409.422L256.891 418.99Z" fill="#FCAA23"/>
<path fill-rule="evenodd" clip-rule="evenodd" d="M256.891 418.99L257.416 418.954L255.652 393.92L249.529 394.732L244.187 409.598L257.5 420.145L257.416 418.954L256.891 418.99L257.218 418.577L245.437 409.242L250.304 395.692L254.679 395.112L256.363 419.027L256.891 418.99L257.218 418.577L256.891 418.99Z" fill="black"/>
<path fill-rule="evenodd" clip-rule="evenodd" d="M124.974 421.342L150.777 400.902L159.473 401.19L137.881 415.064L124.974 421.342Z" fill="#FCAA23"/>
<path fill-rule="evenodd" clip-rule="evenodd" d="M124.974 421.342L125.301 421.754L150.954 401.435L157.765 401.662L137.623 414.603L124.742 420.868L124.974 421.342L125.301 421.754L124.974 421.342L125.204 421.817L138.139 415.526L161.182 400.718L150.603 400.367L120.856 423.932L125.204 421.817L124.974 421.342Z" fill="black"/>
<path fill-rule="evenodd" clip-rule="evenodd" d="M197.509 402.197C197.509 402.197 204.984 395.51 218.645 395.94C232.303 396.372 249.917 395.212 249.917 395.212L249.268 411.325L241.31 414.777C241.31 414.777 198.226 413.759 194.199 417.933C190.176 422.11 187.758 423.692 185.445 422.83C183.13 421.965 190.751 401.119 197.509 402.197Z" fill="white"/>
<path fill-rule="evenodd" clip-rule="evenodd" d="M197.509 402.197L197.859 402.59L197.835 402.561L197.859 402.59L197.835 402.561L197.859 402.59C197.883 402.566 199.623 401.029 202.924 399.5C206.226 397.97 211.088 396.449 217.379 396.449C217.79 396.449 218.204 396.454 218.626 396.467C220.775 396.536 223.019 396.565 225.276 396.565C237.416 396.565 249.943 395.74 249.951 395.737L249.917 395.212L249.389 395.191L248.756 410.975L241.102 414.292L241.31 414.777L241.323 414.25C241.321 414.25 236.691 414.139 230.32 414.139C223.786 414.141 215.425 414.255 208.346 414.722C204.804 414.956 201.585 415.278 199.059 415.721C197.796 415.942 196.707 416.193 195.826 416.488C195.386 416.636 194.998 416.794 194.663 416.968C194.329 417.145 194.046 417.335 193.822 417.569C192.174 419.278 190.803 420.538 189.635 421.353C189.05 421.762 188.517 422.057 188.029 422.249C187.542 422.439 187.099 422.529 186.679 422.529C186.323 422.529 185.981 422.466 185.627 422.334L185.59 422.439L185.656 422.35L185.627 422.334L185.59 422.439L185.656 422.35L185.627 422.387L185.664 422.355L185.656 422.35L185.627 422.387L185.664 422.355C185.662 422.355 185.622 422.297 185.596 422.173C185.567 422.052 185.548 421.872 185.548 421.651C185.548 421.158 185.638 420.467 185.815 419.655C186.12 418.231 186.687 416.435 187.439 414.555C188.567 411.734 190.118 408.712 191.829 406.432C192.683 405.29 193.58 404.335 194.463 403.681C194.903 403.355 195.341 403.104 195.763 402.935C196.188 402.767 196.596 402.682 196.994 402.682C197.139 402.682 197.282 402.693 197.424 402.716L197.672 402.756L197.859 402.59L197.509 402.197L197.59 401.675C197.393 401.643 197.195 401.627 196.994 401.627C196.156 401.627 195.338 401.902 194.558 402.355C193.192 403.154 191.913 404.509 190.732 406.144C188.96 408.602 187.412 411.705 186.297 414.574C185.741 416.011 185.292 417.385 184.981 418.595C184.67 419.808 184.496 420.847 184.494 421.651C184.494 422.012 184.528 422.329 184.625 422.616C184.675 422.761 184.747 422.898 184.849 423.025C184.952 423.151 185.095 423.262 185.261 423.323C185.72 423.494 186.197 423.584 186.679 423.584C187.249 423.584 187.826 423.462 188.414 423.23C189.298 422.882 190.21 422.297 191.217 421.477C192.224 420.657 193.327 419.6 194.579 418.3C194.692 418.184 194.885 418.041 195.154 417.901C195.655 417.638 196.409 417.379 197.35 417.15C199.001 416.744 201.229 416.414 203.797 416.153C211.507 415.37 222.299 415.194 230.32 415.194C233.5 415.194 236.245 415.223 238.194 415.249C239.169 415.262 239.947 415.278 240.48 415.286C241.012 415.296 241.297 415.304 241.3 415.304L241.416 415.307L249.782 411.679L250.465 394.648L249.882 394.685C249.88 394.685 249.687 394.698 249.321 394.722C246.766 394.88 235.857 395.51 225.276 395.51C223.027 395.51 220.794 395.481 218.661 395.415C218.228 395.399 217.801 395.394 217.379 395.394C210.866 395.394 205.82 396.984 202.4 398.579C198.98 400.177 197.187 401.775 197.155 401.804L197.509 402.197L197.59 401.675L197.509 402.197Z" fill="black"/>
<path fill-rule="evenodd" clip-rule="evenodd" d="M137.881 415.064L160.699 395.94C160.699 395.94 166.893 397.807 180.399 395.212C193.901 392.618 197.509 402.197 197.509 402.197L187.779 420.849C187.779 420.849 184.855 416.789 174.07 417.076C163.289 417.366 137.881 415.064 137.881 415.064Z" fill="white"/>
<path fill-rule="evenodd" clip-rule="evenodd" d="M137.881 415.064L138.219 415.468L161.037 396.346L160.699 395.94L160.547 396.446C160.597 396.462 162.804 397.119 167.394 397.119C170.585 397.119 174.927 396.8 180.496 395.729C182.078 395.426 183.515 395.294 184.818 395.294C187.225 395.294 189.182 395.745 190.769 396.412C193.15 397.417 194.714 398.917 195.684 400.169C196.169 400.794 196.507 401.356 196.718 401.757C196.826 401.957 196.899 402.118 196.95 402.226C196.973 402.281 196.989 402.321 197 402.347L197.013 402.376L197.015 402.382L197.066 402.363L197.015 402.382L197.066 402.363L197.015 402.382L197.509 402.197L197.039 401.952L187.31 420.604L187.779 420.849L188.206 420.541C188.161 420.48 187.41 419.47 185.411 418.484C183.41 417.495 180.167 416.536 175.152 416.536C174.796 416.536 174.432 416.541 174.057 416.549C173.43 416.567 172.749 416.575 172.024 416.575C166.234 416.575 157.701 416.066 150.627 415.557C147.089 415.302 143.914 415.049 141.623 414.856C140.478 414.761 139.553 414.682 138.917 414.627C138.279 414.571 137.928 414.54 137.928 414.54L137.881 415.064L138.219 415.468L137.881 415.064L137.834 415.589C137.836 415.589 143.463 416.101 150.551 416.609C157.638 417.118 166.179 417.63 172.024 417.63C172.755 417.63 173.446 417.622 174.086 417.604C174.45 417.596 174.803 417.59 175.152 417.59C180.035 417.59 183.107 418.524 184.944 419.428C185.862 419.882 186.474 420.33 186.851 420.657C187.041 420.82 187.17 420.952 187.252 421.042C187.291 421.084 187.317 421.118 187.333 421.137L187.349 421.158L187.352 421.161L187.571 420.997L187.349 421.158L187.352 421.161L187.571 420.997L187.349 421.158L187.85 421.851L198.083 402.231L198.002 402.01C197.983 401.962 197.255 400.037 195.238 398.099C194.231 397.132 192.897 396.164 191.18 395.442C189.461 394.717 187.357 394.239 184.818 394.239C183.444 394.239 181.939 394.379 180.298 394.695C174.79 395.753 170.513 396.064 167.394 396.064C165.148 396.064 163.502 395.903 162.421 395.745C161.881 395.666 161.483 395.587 161.222 395.529C161.092 395.5 160.997 395.476 160.934 395.46C160.903 395.45 160.881 395.444 160.868 395.442L160.852 395.436H160.85L160.808 395.587L160.852 395.436H160.85L160.808 395.587L160.852 395.436L160.578 395.355L136.571 415.476L137.834 415.589L137.881 415.064Z" fill="black"/>
<path fill-rule="evenodd" clip-rule="evenodd" d="M187.731 423.621C187.731 423.621 189.023 415.927 179.391 414.057C169.757 412.188 137.881 415.064 137.881 415.064L124.974 421.342L180.269 419.083C181.409 419.035 182.482 420.061 182.519 421.356L182.339 423.547L187.731 423.621Z" fill="#FCAA23"/>
<path fill-rule="evenodd" clip-rule="evenodd" d="M187.731 423.621L188.251 423.708C188.254 423.684 188.317 423.309 188.317 422.714C188.314 421.603 188.106 419.7 186.875 417.859C186.263 416.942 185.393 416.048 184.188 415.291C182.983 414.534 181.443 413.92 179.492 413.54C178.273 413.303 176.739 413.145 174.972 413.045C173.208 412.942 171.215 412.9 169.087 412.9C155.998 412.9 137.841 414.54 137.834 414.54L137.736 414.548L122.472 421.973L180.291 419.607H180.343C180.736 419.607 181.145 419.789 181.456 420.111C181.77 420.433 181.978 420.876 181.991 421.369L182.519 421.356L181.994 421.311L181.767 424.066L188.174 424.153L188.251 423.708L187.731 423.621L187.737 423.093L182.912 423.027L183.046 421.369V421.34C183.025 420.567 182.701 419.874 182.213 419.375C181.725 418.874 181.061 418.553 180.343 418.553C180.309 418.553 180.277 418.553 180.246 418.555L127.474 420.712L138.11 415.539L137.881 415.064L137.929 415.589C137.929 415.589 138.211 415.565 138.73 415.52C142.377 415.207 157.704 413.954 169.087 413.954C171.199 413.954 173.177 413.996 174.912 414.097C176.649 414.197 178.147 414.352 179.291 414.577C181.134 414.932 182.545 415.507 183.626 416.185C185.248 417.203 186.142 418.455 186.648 419.65C187.154 420.841 187.262 421.978 187.262 422.714C187.262 422.975 187.246 423.186 187.236 423.328C187.228 423.399 187.223 423.452 187.217 423.489L187.212 423.526L187.209 423.534L187.26 423.539L187.209 423.531V423.534L187.26 423.539L187.209 423.531L187.731 423.621L187.737 423.093L187.731 423.621Z" fill="black"/>
<path fill-rule="evenodd" clip-rule="evenodd" d="M187.731 423.621C187.731 423.621 186.867 415.71 199.808 413.374C212.749 411.038 249.268 411.325 249.268 411.325L256.891 418.99H197.134C195.716 418.99 194.561 420.132 194.489 421.714L194.416 423.621H187.731Z" fill="#FCAA23"/>
<path fill-rule="evenodd" clip-rule="evenodd" d="M187.731 423.621L188.254 423.563L187.948 423.597L188.256 423.565L188.254 423.563L187.948 423.597L188.256 423.565L188.254 423.549C188.251 423.518 188.246 423.436 188.246 423.312C188.246 422.983 188.283 422.355 188.509 421.572C188.849 420.396 189.598 418.874 191.304 417.44C193.01 416.006 195.689 414.656 199.903 413.894C202.463 413.432 205.996 413.068 209.996 412.789C221.993 411.948 238.191 411.842 245.458 411.842C246.65 411.842 247.602 411.845 248.255 411.848C248.909 411.85 249.263 411.853 249.265 411.853L249.268 411.325L248.896 411.697L255.623 418.463H197.134C196.282 418.463 195.499 418.811 194.93 419.389C194.36 419.969 194.002 420.778 193.962 421.69L193.909 423.093H187.731V423.621L188.254 423.563L187.731 423.621V424.148H194.925L195.014 421.735V421.738C195.046 421.071 195.302 420.517 195.684 420.13C196.066 419.742 196.57 419.518 197.134 419.518H258.156L249.489 410.801L249.273 410.798C249.273 410.798 247.847 410.788 245.458 410.788C240.606 410.788 231.786 410.832 222.874 411.114C218.418 411.254 213.941 411.455 209.922 411.737C205.901 412.019 202.344 412.38 199.715 412.855C196.815 413.379 194.576 414.181 192.849 415.128C190.257 416.544 188.826 418.286 188.061 419.829C187.296 421.371 187.191 422.7 187.191 423.312C187.191 423.531 187.204 423.66 187.207 423.676L187.257 424.148H187.731V423.621Z" fill="black"/>
<path fill-rule="evenodd" clip-rule="evenodd" d="M260.458 307.598C260.458 307.598 261.634 319.962 259.478 342.453L260.458 307.598Z" fill="#FEF9E6"/>
<path fill-rule="evenodd" clip-rule="evenodd" d="M259.934 307.648C259.934 307.648 259.934 307.659 259.936 307.683C259.971 308.062 260.25 311.382 260.25 317.381C260.25 323.245 259.981 331.667 258.953 342.403C258.924 342.693 259.137 342.952 259.427 342.978C259.717 343.007 259.976 342.794 260.002 342.504C261.036 331.732 261.305 323.276 261.305 317.381C261.305 310.947 260.983 307.564 260.983 307.548C260.954 307.258 260.698 307.045 260.408 307.074C260.118 307.1 259.905 307.358 259.934 307.648Z" fill="black"/>
<path fill-rule="evenodd" clip-rule="evenodd" d="M327.648 381.889C327.656 386.606 325.354 391.502 317.222 394.139C298.512 400.206 259.657 378.559 259.124 378.261L259.116 378.258C253.801 388.823 248.909 392.204 248.909 392.204C248.48 394.935 246.323 397.163 246.323 397.163C247.902 396.589 253.872 398.674 248.767 401.477C243.66 404.28 239.349 402.194 239.349 402.194C236.472 404.351 233.959 403.555 233.959 403.555C227.428 405.182 227.916 394.967 227.984 393.881C227.902 394.279 227.159 396.045 220.657 401.693C213.036 408.309 204.984 402.411 208.488 401.693C211.998 400.974 228.419 383.434 228.997 381.132C229.571 378.83 240.211 371.213 245.677 366.538C251.137 361.865 253.584 362.295 260.126 363.302C266.665 364.31 323.606 369.773 323.606 369.773C323.606 369.773 327.635 375.674 327.648 381.889Z" fill="white"/>
<path fill-rule="evenodd" clip-rule="evenodd" d="M327.648 381.889H327.121V381.915C327.118 384.188 326.567 386.458 325.056 388.494C323.54 390.527 321.043 392.346 317.059 393.638C314.831 394.361 312.284 394.685 309.526 394.685C304.606 394.685 299.026 393.654 293.428 392.093C276.635 387.41 259.712 377.986 259.38 377.799L259.354 377.786L258.882 377.549L258.647 378.021C256.005 383.265 253.479 386.714 251.62 388.844C250.692 389.912 249.93 390.648 249.405 391.115C249.141 391.349 248.938 391.516 248.804 391.621C248.735 391.674 248.685 391.713 248.651 391.737L248.617 391.763L248.609 391.769L248.422 391.898L248.387 392.119C248.192 393.374 247.583 394.558 247.014 395.418C246.731 395.848 246.46 396.196 246.259 396.436C246.162 396.554 246.08 396.647 246.025 396.707C245.996 396.739 245.975 396.763 245.962 396.776L245.946 396.792L245.943 396.794L244.35 398.44L246.502 397.659C246.592 397.625 246.774 397.593 247 397.593C247.301 397.593 247.681 397.643 248.066 397.736C248.646 397.878 249.247 398.123 249.661 398.421C249.869 398.569 250.027 398.724 250.125 398.872C250.225 399.02 250.262 399.144 250.265 399.275C250.265 399.36 250.246 399.455 250.199 399.568C250.125 399.74 249.972 399.956 249.7 400.204C249.429 400.451 249.039 400.726 248.514 401.013C246.544 402.094 244.714 402.413 243.222 402.413C242.112 402.413 241.192 402.234 240.551 402.06C240.232 401.97 239.981 401.883 239.815 401.82C239.734 401.786 239.67 401.762 239.631 401.743L239.588 401.725L239.578 401.72L239.291 401.58L239.032 401.772C237.474 402.938 236.068 403.17 235.153 403.173C234.819 403.173 234.55 403.138 234.37 403.107C234.281 403.091 234.212 403.078 234.17 403.067L234.125 403.054L234.117 403.051L234.07 403.204L234.12 403.051H234.117L234.07 403.204L234.12 403.051L233.977 403.006L233.832 403.043C233.389 403.154 232.989 403.204 232.63 403.204C232.166 403.202 231.771 403.123 231.42 402.98C230.808 402.735 230.323 402.295 229.922 401.704C229.321 400.821 228.947 399.6 228.738 398.384C228.527 397.169 228.477 395.961 228.477 395.096C228.477 394.514 228.498 394.086 228.511 393.912L227.467 393.775C227.465 393.794 227.428 393.931 227.264 394.208C227.022 394.622 226.497 395.344 225.426 396.483C224.356 397.625 222.74 399.186 220.311 401.295C217.719 403.542 215.119 404.27 212.973 404.272C211.504 404.272 210.247 403.924 209.384 403.481C208.955 403.262 208.622 403.017 208.422 402.806C208.319 402.698 208.251 402.603 208.214 402.529C208.177 402.455 208.172 402.411 208.172 402.397V402.392L208.169 402.389L208.172 402.392L208.169 402.389L208.172 402.392L208.179 402.379C208.203 402.353 208.325 402.263 208.596 402.21C208.897 402.147 209.2 402.015 209.54 401.833C210.176 401.49 210.932 400.958 211.792 400.275C213.295 399.083 215.112 397.432 217.002 395.597C219.842 392.842 222.85 389.667 225.2 386.996C226.373 385.662 227.383 384.452 228.129 383.479C228.501 382.991 228.809 382.564 229.039 382.203C229.155 382.021 229.252 381.857 229.332 381.704C229.408 381.549 229.469 381.411 229.508 381.261V381.259C229.524 381.193 229.577 381.066 229.669 380.913C229.846 380.623 230.157 380.23 230.576 379.785C231.312 379.001 232.369 378.039 233.603 376.987C235.459 375.405 237.719 373.615 239.934 371.861C242.151 370.105 244.324 368.386 246.02 366.938C247.741 365.464 249.139 364.526 250.431 363.956C251.725 363.389 252.92 363.178 254.307 363.178C255.873 363.176 257.682 363.458 260.047 363.822C260.883 363.951 262.486 364.146 264.672 364.394C279.962 366.113 323.553 370.298 323.556 370.298L323.606 369.773L323.171 370.071V370.073C323.221 370.145 324.212 371.621 325.188 373.82C326.164 376.019 327.115 378.943 327.121 381.889H327.648L328.175 381.886C328.165 378.667 327.129 375.576 326.103 373.285C325.075 370.991 324.054 369.493 324.041 369.475L323.901 369.272L323.656 369.248C323.656 369.248 323.435 369.227 323.015 369.188C319.875 368.884 305.7 367.518 291.543 366.108C284.463 365.404 277.389 364.689 271.704 364.091C268.862 363.793 266.365 363.524 264.39 363.3C262.415 363.076 260.957 362.896 260.208 362.78C257.845 362.419 256 362.124 254.307 362.124C252.812 362.121 251.435 362.361 250.006 362.991C248.577 363.621 247.101 364.626 245.334 366.137C242.621 368.457 238.592 371.532 235.169 374.316C233.458 375.708 231.894 377.027 230.713 378.158C230.12 378.722 229.624 379.239 229.245 379.703C229.055 379.935 228.896 380.154 228.767 380.367C228.638 380.581 228.54 380.784 228.485 381.005V381.003C228.48 381.024 228.459 381.085 228.422 381.164C228.348 381.322 228.211 381.554 228.021 381.831C227.668 382.358 227.138 383.057 226.479 383.866C224.163 386.706 220.266 390.933 216.614 394.503C214.79 396.288 213.021 397.912 211.549 399.117C210.814 399.718 210.152 400.214 209.603 400.57C209.326 400.747 209.081 400.889 208.873 400.992C208.665 401.095 208.491 401.155 208.383 401.177C208.034 401.248 207.739 401.366 207.502 401.569C207.383 401.672 207.283 401.799 207.217 401.944C207.149 402.086 207.117 402.244 207.117 402.397C207.117 402.619 207.18 402.825 207.278 403.012C207.446 403.339 207.713 403.621 208.056 403.887C208.567 404.285 209.258 404.639 210.091 404.9C210.924 405.161 211.9 405.327 212.973 405.327C215.359 405.329 218.231 404.499 221.002 402.092C224.266 399.257 226.096 397.388 227.132 396.159C227.649 395.542 227.971 395.086 228.174 394.743C228.377 394.397 228.464 394.165 228.501 393.986L227.984 393.881L227.457 393.846C227.446 394.036 227.423 394.487 227.423 395.096C227.423 396.478 227.539 398.677 228.216 400.602C228.556 401.564 229.041 402.463 229.764 403.146C230.125 403.484 230.544 403.766 231.024 403.958C231.504 404.153 232.042 404.259 232.63 404.256C233.086 404.256 233.571 404.196 234.088 404.066L233.959 403.555L233.801 404.059C233.84 404.069 234.344 404.225 235.153 404.227C236.25 404.227 237.912 403.932 239.665 402.616L239.349 402.194L239.119 402.669C239.167 402.69 240.778 403.465 243.222 403.468C244.865 403.468 246.884 403.112 249.02 401.939C249.793 401.514 250.346 401.097 250.729 400.66C250.919 400.444 251.066 400.217 251.166 399.985C251.267 399.753 251.319 399.513 251.319 399.275C251.319 399.03 251.264 398.796 251.169 398.582C251 398.21 250.729 397.915 250.41 397.664C249.932 397.293 249.344 397.021 248.746 396.831C248.145 396.644 247.536 396.541 247 396.539C246.692 396.541 246.407 396.573 246.141 396.668L246.323 397.163L246.7 397.53C246.716 397.514 247.275 396.934 247.894 395.998C248.511 395.059 249.194 393.765 249.429 392.285L248.909 392.204L249.207 392.636C249.279 392.589 254.233 389.135 259.588 378.493L259.116 378.258L258.882 378.727L258.887 378.733L259.124 378.261L258.866 378.719C259.111 378.856 266.731 383.102 276.804 387.32C281.84 389.43 287.49 391.531 293.146 393.108C298.802 394.685 304.458 395.74 309.526 395.74C312.365 395.74 315.018 395.407 317.386 394.643C321.518 393.303 324.231 391.365 325.9 389.121C327.572 386.88 328.175 384.354 328.175 381.915V381.886L327.648 381.889Z" fill="black"/>
<path fill-rule="evenodd" clip-rule="evenodd" d="M233.516 392.441C233.513 392.446 233.237 393.62 232.957 395.204C232.678 396.792 232.398 398.785 232.395 400.475C232.398 401.295 232.461 402.044 232.646 402.672C232.741 402.983 232.865 403.267 233.049 403.515C233.234 403.758 233.492 403.964 233.806 404.059C234.083 404.143 234.378 403.987 234.463 403.708C234.55 403.431 234.391 403.136 234.115 403.051C234.041 403.025 233.975 402.985 233.89 402.877C233.767 402.719 233.643 402.405 233.566 401.986C233.487 401.567 233.45 401.047 233.45 400.475C233.45 398.901 233.722 396.939 233.996 395.386C234.133 394.608 234.27 393.931 234.37 393.451C234.423 393.208 234.465 393.016 234.494 392.884C234.51 392.818 234.521 392.768 234.529 392.734C234.536 392.702 234.542 392.684 234.542 392.684C234.608 392.401 234.434 392.117 234.149 392.048C233.867 391.982 233.582 392.156 233.516 392.441Z" fill="black"/>
<path fill-rule="evenodd" clip-rule="evenodd" d="M238.921 394.118C238.916 394.129 238.684 394.814 238.449 395.803C238.215 396.794 237.977 398.086 237.977 399.336C237.977 399.937 238.033 400.533 238.18 401.084C238.328 401.635 238.573 402.152 238.969 402.561C239.172 402.772 239.504 402.777 239.715 402.577C239.923 402.374 239.931 402.039 239.728 401.83C239.491 401.585 239.314 401.24 239.198 400.81C239.082 400.38 239.029 399.871 239.032 399.336C239.029 398.221 239.251 396.989 239.475 396.048C239.586 395.576 239.699 395.175 239.784 394.896C239.823 394.753 239.857 394.643 239.884 394.569C239.894 394.532 239.905 394.503 239.91 394.484L239.918 394.463V394.458C240.013 394.184 239.865 393.883 239.591 393.788C239.314 393.693 239.016 393.841 238.921 394.118Z" fill="black"/>
<path fill-rule="evenodd" clip-rule="evenodd" d="M327.648 381.261C327.656 385.978 325.354 390.877 317.222 393.514C298.512 399.579 259.657 377.931 259.124 377.633L259.116 377.63C259.116 377.63 260.556 374.754 263.003 375.903C265.379 377.021 305.797 389.709 327.648 381.261Z" fill="#FCAA23"/>
<path fill-rule="evenodd" clip-rule="evenodd" d="M260.435 401.061H325.562V394.258H260.435V401.061Z" fill="white"/>
<path fill-rule="evenodd" clip-rule="evenodd" d="M260.435 394.258V394.785H325.035V400.533H260.962V394.258H260.435V394.785V394.258H259.907V401.588H326.09V393.73H259.907V394.258H260.435Z" fill="black"/>
<path fill-rule="evenodd" clip-rule="evenodd" d="M140.075 500.031L208.259 527.358V543.809L144.083 514.792C141.644 513.689 140.075 511.258 140.075 508.582V500.031Z" fill="#222831"/>
<path fill-rule="evenodd" clip-rule="evenodd" d="M208.259 527.358L320.624 510.966V523.477L208.259 543.809V527.358Z" fill="#222831"/>
<path fill-rule="evenodd" clip-rule="evenodd" d="M528.685 554.245H536.16V438.07H528.685V554.245Z" fill="#222831"/>
<path fill-rule="evenodd" clip-rule="evenodd" d="M475.195 554.245H482.673V438.07H475.195V554.245Z" fill="#222831"/>
<path fill-rule="evenodd" clip-rule="evenodd" d="M0.52735 553.91H121.734C122.026 553.91 122.261 553.673 122.261 553.383C122.261 553.09 122.026 552.856 121.734 552.856H0.52735C0.234671 552.856 0 553.09 0 553.383C0 553.673 0.234671 553.91 0.52735 553.91Z" fill="black"/>
<path fill-rule="evenodd" clip-rule="evenodd" d="M130.074 553.91H411.167C411.46 553.91 411.695 553.673 411.695 553.383C411.695 553.09 411.46 552.856 411.167 552.856H130.074C129.784 552.856 129.546 553.09 129.546 553.383C129.546 553.673 129.784 553.91 130.074 553.91Z" fill="black"/>
<path fill-rule="evenodd" clip-rule="evenodd" d="M423.676 554.773H613.208C613.501 554.773 613.736 554.535 613.736 554.245C613.736 553.955 613.501 553.718 613.208 553.718H423.676C423.386 553.718 423.149 553.955 423.149 554.245C423.149 554.535 423.386 554.773 423.676 554.773Z" fill="black"/>
<path fill-rule="evenodd" clip-rule="evenodd" d="M256.891 458.774C256.891 458.774 280.168 474.212 301.391 465.89C319.543 458.774 318.86 459.71 318.86 459.71C318.86 459.71 396.784 455.755 406.853 482.713C413.851 501.442 366.092 553.383 366.092 553.383H319.292C319.292 553.383 328.787 523.907 334.069 513.339C334.069 513.339 285.231 515.928 267.646 507.517C250.059 499.106 257.824 458.774 257.824 458.774" fill="#5856D6"/>
<path fill-rule="evenodd" clip-rule="evenodd" d="M256.598 459.214C256.617 459.227 260.253 461.637 265.969 464.05C271.686 466.46 279.483 468.88 287.838 468.88C292.342 468.88 297.006 468.176 301.584 466.383C308.766 463.565 312.996 462.012 315.477 461.165C316.716 460.741 317.518 460.496 318.029 460.356C318.282 460.287 318.464 460.245 318.588 460.221C318.649 460.211 318.694 460.203 318.725 460.2C318.757 460.195 318.773 460.195 318.773 460.195V459.839L318.628 460.158C318.736 460.203 318.77 460.192 318.773 460.195V459.839L318.628 460.158L318.833 459.707L318.433 459.997C318.496 460.087 318.575 460.134 318.628 460.158L318.833 459.707L318.433 459.997L318.847 459.697H318.335C318.332 459.789 318.367 459.91 318.433 459.997L318.847 459.697H318.335H318.841L318.372 459.507C318.356 459.549 318.335 459.61 318.335 459.697H318.841L318.372 459.507L318.847 459.699L318.422 459.415C318.406 459.438 318.39 459.465 318.372 459.507L318.847 459.699L318.422 459.415L317.834 460.29L318.886 460.235C318.886 460.235 318.947 460.232 319.068 460.227C319.915 460.187 323.667 460.032 329.183 460.032C339.93 460.032 357.375 460.625 373.069 463.81C380.913 465.4 388.32 467.641 394.216 470.76C397.163 472.319 399.732 474.093 401.796 476.11C403.861 478.125 405.416 480.377 406.36 482.897C406.811 484.105 407.027 485.474 407.027 486.984C407.027 489.563 406.395 492.548 405.274 495.783C403.312 501.444 399.858 507.873 395.779 514.309C389.659 523.965 382.137 533.65 376.149 540.917C373.153 544.55 370.54 547.577 368.679 549.697C367.745 550.757 367.002 551.59 366.49 552.157C366.237 552.442 366.039 552.658 365.905 552.806C365.773 552.951 365.704 553.024 365.704 553.024L366.092 553.383V552.856H319.292V553.383L319.793 553.544C319.793 553.544 319.83 553.431 319.901 553.212C320.431 551.577 322.86 544.128 325.773 535.857C327.229 531.72 328.808 527.377 330.33 523.453C331.848 519.53 333.314 516.023 334.541 513.576L334.944 512.764L334.04 512.811C334.04 512.811 333.931 512.819 333.718 512.83C332.236 512.901 325.75 513.188 317.233 513.188C309.325 513.188 299.664 512.941 290.633 512.044C286.119 511.596 281.763 510.984 277.866 510.164C273.972 509.347 270.536 508.316 267.873 507.04C265.626 505.964 263.807 504.35 262.33 502.336C260.116 499.316 258.687 495.39 257.819 491.127C256.952 486.866 256.643 482.275 256.643 477.93C256.643 472.814 257.07 468.045 257.495 464.559C257.706 462.813 257.919 461.392 258.077 460.403C258.157 459.91 258.225 459.528 258.27 459.267C258.294 459.138 258.312 459.037 258.323 458.972C258.336 458.906 258.341 458.874 258.341 458.874C258.396 458.587 258.209 458.312 257.924 458.257C257.637 458.202 257.36 458.389 257.307 458.674C257.302 458.695 255.591 467.586 255.588 477.93C255.591 483.789 256.137 490.114 257.877 495.578C258.747 498.309 259.918 500.827 261.479 502.958C263.04 505.091 264.996 506.834 267.417 507.991C270.199 509.32 273.703 510.367 277.65 511.198C283.572 512.442 290.491 513.202 297.42 513.653C304.347 514.103 311.284 514.243 317.233 514.243C326.994 514.243 334.09 513.866 334.095 513.866L334.069 513.339L333.597 513.104C332.262 515.775 330.675 519.606 329.038 523.865C324.133 536.634 318.791 553.217 318.789 553.22L318.567 553.91H366.324L366.48 553.739C366.487 553.731 376.863 542.448 387.247 528.487C392.438 521.507 397.633 513.856 401.54 506.597C403.494 502.968 405.124 499.435 406.271 496.129C407.415 492.82 408.08 489.735 408.082 486.984C408.082 485.376 407.853 483.878 407.349 482.528C406.345 479.841 404.686 477.458 402.532 475.354C398.759 471.673 393.467 468.833 387.36 466.618C378.203 463.301 367.202 461.395 356.716 460.314C346.229 459.233 336.262 458.977 329.183 458.977C322.857 458.977 318.839 459.182 318.833 459.182L318.86 459.71L319.298 460.003C319.313 459.981 319.332 459.95 319.35 459.902C319.369 459.857 319.39 459.792 319.39 459.697C319.392 459.602 319.358 459.473 319.287 459.378C319.234 459.309 319.174 459.259 319.118 459.227C319.036 459.18 318.971 459.164 318.918 459.153C318.862 459.143 318.818 459.14 318.773 459.14C318.659 459.14 318.549 459.156 318.388 459.185C318.111 459.24 317.692 459.346 317.017 459.554C314.989 460.171 310.638 461.698 301.199 465.4C296.761 467.14 292.231 467.826 287.838 467.826C279.688 467.828 272.013 465.455 266.381 463.077C263.564 461.89 261.26 460.701 259.662 459.81C258.863 459.364 258.238 458.995 257.819 458.737C257.608 458.608 257.447 458.505 257.339 458.436C257.286 458.402 257.247 458.376 257.22 458.36L257.189 458.341L257.181 458.333C256.938 458.173 256.611 458.241 256.451 458.484C256.29 458.726 256.356 459.053 256.598 459.214Z" fill="black"/>
<path fill-rule="evenodd" clip-rule="evenodd" d="M283.633 495.295C283.633 495.295 311.24 504.785 329.069 495.295C346.896 485.806 346.322 483.594 350.493 484.34C350.493 484.34 339.996 496.158 333.38 512.693C333.38 512.693 293.122 513.842 282.483 510.966C273.787 508.616 283.633 495.295 283.633 495.295Z" fill="#302EA7"/>
<path fill-rule="evenodd" clip-rule="evenodd" d="M334.559 513.529C334.559 513.529 334.567 513.513 334.58 513.476C334.804 512.904 336.792 507.912 340.036 501.861C343.279 495.81 347.788 488.696 353.006 483.891C353.219 483.696 353.233 483.361 353.037 483.148C352.84 482.934 352.505 482.919 352.291 483.116C346.749 488.224 342.09 495.723 338.794 501.951C335.5 508.179 333.581 513.136 333.576 513.149C333.47 513.42 333.607 513.726 333.879 513.832C334.15 513.937 334.454 513.8 334.559 513.529Z" fill="black"/>
<path fill-rule="evenodd" clip-rule="evenodd" d="M501.394 390.289C501.394 390.289 499.316 394.798 502.589 397.058L486.729 417.909L408.351 416.264C408.351 416.264 406.004 407.645 408.686 405.034L486.563 406.645L501.394 390.289Z" fill="white"/>
<path fill-rule="evenodd" clip-rule="evenodd" d="M486.562 406.645L408.288 405.092L433.358 385.142L505.191 386.1L486.562 406.645Z" fill="#222831"/>
<path fill-rule="evenodd" clip-rule="evenodd" d="M502.589 397.058L486.729 417.909L408.351 416.264C408.351 416.264 406.743 407.289 408.981 405.034C408.981 405.034 409.775 404.478 408.351 405.034C406.337 405.825 402.898 411.919 407.357 417.395L488.617 419.655L505.861 397.058H502.589Z" fill="#222831"/>
<path fill-rule="evenodd" clip-rule="evenodd" d="M486.32 417.469C482.599 411.486 486.014 407.275 486.162 407.083H486.563C486.526 407.125 483.24 411.858 486.729 417.469H486.32Z" fill="black"/>
<path fill-rule="evenodd" clip-rule="evenodd" d="M490.755 376.127C490.755 376.127 488.677 380.634 491.949 382.896L476.087 403.747L397.712 402.105C397.712 402.105 395.365 393.483 398.047 390.872L475.921 392.483L490.755 376.127Z" fill="white"/>
<path fill-rule="evenodd" clip-rule="evenodd" d="M475.921 392.483L397.649 390.93L422.719 370.98L494.552 371.938L475.921 392.483Z" fill="#222831"/>
<path fill-rule="evenodd" clip-rule="evenodd" d="M475.921 392.483L475.931 391.956L399.122 390.432L422.901 371.51L493.376 372.449L475.53 392.127L475.921 392.483L475.931 391.956L475.921 392.483L476.313 392.837L495.728 371.426L422.537 370.45L396.177 391.428L476.15 393.013L476.313 392.837L475.921 392.483Z" fill="black"/>
<path fill-rule="evenodd" clip-rule="evenodd" d="M491.949 382.896L476.087 403.747L397.712 402.105C397.712 402.105 396.103 393.127 398.342 390.872C398.342 390.872 399.136 390.316 397.712 390.872C395.697 391.661 392.256 397.757 396.718 403.233L477.977 405.493L495.222 382.896H491.949Z" fill="#222831"/>
<path fill-rule="evenodd" clip-rule="evenodd" d="M491.949 382.896L491.53 382.577L475.831 403.212L397.722 401.577L397.712 402.105L398.231 402.01L398.226 401.978C398.165 401.641 397.68 398.735 397.68 395.958C397.68 394.93 397.746 393.92 397.92 393.079C398.005 392.66 398.118 392.283 398.252 391.972C398.387 391.661 398.548 391.415 398.716 391.244L398.342 390.872L398.645 391.305C398.653 391.299 398.716 391.254 398.793 391.189C398.833 391.154 398.875 391.117 398.925 391.062C398.951 391.033 398.978 390.999 399.009 390.943C399.038 390.888 399.086 390.811 399.091 390.653C399.091 390.569 399.067 390.461 399.012 390.369C398.97 390.3 398.914 390.242 398.859 390.205C398.777 390.147 398.703 390.123 398.648 390.113C398.59 390.1 398.545 390.097 398.508 390.097C398.426 390.097 398.368 390.107 398.303 390.121C398.118 390.16 397.891 390.237 397.519 390.382C397.09 390.55 396.686 390.862 396.288 391.273C395.697 391.895 395.136 392.763 394.711 393.807C394.289 394.848 394.01 396.069 394.01 397.388C394.007 399.344 394.637 401.517 396.309 403.565L396.459 403.753L478.233 406.028L496.287 382.369H491.688L491.53 382.577L491.949 382.896V383.423H494.156L477.722 404.958L396.731 402.706L396.718 403.233L397.127 402.901C395.605 401.029 395.067 399.123 395.065 397.388C395.065 395.832 395.508 394.411 396.101 393.332C396.396 392.792 396.731 392.338 397.053 392.001C397.372 391.663 397.686 391.447 397.904 391.363C398.134 391.273 398.297 391.215 398.405 391.183C398.458 391.167 398.498 391.157 398.519 391.154L398.532 391.152L398.508 390.954V391.152H398.532L398.508 390.954V391.152V390.761L398.437 391.146C398.471 391.152 398.492 391.152 398.508 391.152V390.761L398.437 391.146L398.524 390.669L398.197 391.022C398.3 391.115 398.387 391.136 398.437 391.146L398.524 390.669L398.197 391.022L398.54 390.651L398.073 390.846C398.102 390.914 398.15 390.978 398.197 391.022L398.54 390.651L398.073 390.846L398.54 390.653H398.036C398.036 390.709 398.044 390.777 398.073 390.846L398.54 390.653H398.036H398.506L398.097 390.416C398.078 390.453 398.039 390.511 398.036 390.653H398.506L398.097 390.416L398.376 390.579L398.129 390.369C398.123 390.376 398.113 390.387 398.097 390.416L398.376 390.579L398.129 390.369L398.234 390.458L398.134 390.363L398.129 390.369L398.234 390.458L398.134 390.363L398.076 390.413L398.047 390.434L398.039 390.44V390.442L398.158 390.608L398.039 390.44V390.442L398.158 390.608L398.039 390.44L398.002 390.469L397.968 390.5C397.678 390.793 397.459 391.152 397.285 391.552C397.026 392.151 396.865 392.85 396.765 393.599C396.665 394.35 396.626 395.154 396.626 395.958C396.626 399.043 397.19 402.181 397.192 402.197L397.269 402.622L476.345 404.28L492.369 383.215L491.949 382.896V383.423V382.896Z" fill="black"/>
<path fill-rule="evenodd" clip-rule="evenodd" d="M475.681 402.685C471.96 397.419 475.375 393.712 475.522 393.546H475.921C475.886 393.583 472.601 397.749 476.087 402.685H475.681Z" fill="black"/>
<path fill-rule="evenodd" clip-rule="evenodd" d="M501.394 361.733C501.394 361.733 499.316 366.242 502.589 368.502L486.729 389.353L408.351 387.711C408.351 387.711 406.004 379.088 408.686 376.478L486.563 378.089L501.394 361.733Z" fill="white"/>
<path fill-rule="evenodd" clip-rule="evenodd" d="M486.562 378.089L408.288 376.536L433.358 356.586L505.191 357.544L486.562 378.089Z" fill="#FCAA23"/>
<path fill-rule="evenodd" clip-rule="evenodd" d="M486.563 378.089L486.573 377.562L409.762 376.038L433.54 357.116L504.015 358.055L486.17 377.733L486.563 378.089L486.573 377.562L486.563 378.089L486.953 378.442L506.367 357.032L433.179 356.056L406.817 377.034L486.792 378.622L486.953 378.442L486.563 378.089Z" fill="black"/>
<path fill-rule="evenodd" clip-rule="evenodd" d="M502.589 368.502L486.729 389.353L408.351 387.711C408.351 387.711 406.743 378.733 408.981 376.478C408.981 376.478 409.775 375.922 408.351 376.478C406.337 377.266 402.898 383.363 407.357 388.839L488.617 391.099L505.861 368.502H502.589Z" fill="#FCAA23"/>
<path fill-rule="evenodd" clip-rule="evenodd" d="M502.589 368.502L502.169 368.18L486.47 388.821L408.362 387.183L408.351 387.711L408.871 387.616L408.865 387.584C408.805 387.247 408.32 384.341 408.32 381.564C408.32 380.536 408.388 379.526 408.559 378.685C408.644 378.266 408.757 377.889 408.892 377.578C409.026 377.264 409.187 377.019 409.356 376.85L408.981 376.478L409.285 376.911C409.292 376.905 409.356 376.86 409.432 376.795C409.472 376.76 409.514 376.723 409.564 376.668C409.59 376.639 409.617 376.605 409.648 376.549C409.677 376.494 409.725 376.417 409.73 376.259C409.73 376.175 409.706 376.067 409.651 375.975C409.609 375.906 409.554 375.848 409.498 375.811C409.416 375.753 409.343 375.729 409.287 375.719C409.229 375.706 409.187 375.703 409.147 375.703C409.066 375.703 409.008 375.713 408.944 375.727C408.757 375.766 408.53 375.843 408.159 375.988C407.729 376.156 407.325 376.468 406.927 376.879C406.337 377.501 405.775 378.369 405.351 379.413C404.929 380.454 404.649 381.675 404.649 382.994C404.647 384.95 405.277 387.123 406.948 389.171L407.101 389.359L488.872 391.634L506.926 367.975H502.328L502.169 368.18L502.589 368.502V369.029H504.796L488.361 390.564L407.37 388.312L407.357 388.839L407.766 388.507C406.244 386.635 405.707 384.729 405.704 382.994C405.704 381.438 406.147 380.017 406.74 378.938C407.038 378.398 407.37 377.944 407.692 377.607C408.011 377.269 408.327 377.053 408.544 376.969C408.773 376.879 408.937 376.821 409.045 376.789C409.097 376.773 409.137 376.763 409.158 376.76L409.174 376.758L409.147 376.56V376.758H409.174L409.147 376.56V376.758V376.367L409.076 376.75C409.111 376.758 409.132 376.758 409.147 376.758V376.367L409.076 376.75L409.163 376.275L408.836 376.628C408.939 376.721 409.029 376.742 409.076 376.75L409.163 376.275L408.836 376.628L409.182 376.257L408.712 376.452C408.741 376.52 408.789 376.584 408.836 376.628L409.182 376.257L408.712 376.452L409.179 376.259H408.675C408.675 376.315 408.686 376.383 408.712 376.452L409.179 376.259H408.675H409.145L408.736 376.022C408.72 376.056 408.678 376.117 408.675 376.259H409.145L408.736 376.022L409.018 376.185L408.768 375.975C408.763 375.982 408.755 375.993 408.736 376.022L409.018 376.185L408.768 375.975L408.873 376.064L408.773 375.969L408.768 375.975L408.873 376.064L408.773 375.969V375.972V375.969V375.972V375.969L408.718 376.017L408.686 376.04L408.681 376.046H408.678L408.794 376.212L408.678 376.046L408.794 376.212L408.678 376.046L408.641 376.072L408.607 376.106C408.317 376.399 408.098 376.758 407.924 377.158C407.666 377.757 407.505 378.456 407.405 379.205C407.304 379.956 407.265 380.76 407.265 381.564C407.265 384.649 407.829 387.787 407.832 387.803L407.908 388.227L486.984 389.886L503.008 368.821L502.589 368.502V369.029V368.502Z" fill="black"/>
<path fill-rule="evenodd" clip-rule="evenodd" d="M486.32 388.496C482.599 382.994 486.014 379.12 486.162 378.943H486.563C486.528 378.983 483.24 383.336 486.729 388.496H486.32Z" fill="black"/>
<path fill-rule="evenodd" clip-rule="evenodd" d="M193.179 178.065C187.012 167.906 168.575 173.103 168.879 184.805C169.153 195.37 183.294 205.759 186.047 207.684L192.868 204.881C193.058 204.354 193.398 203.365 193.778 202.049C194.977 197.909 196.599 190.529 195.354 183.969C194.959 181.873 194.268 179.861 193.179 178.065Z" fill="white"/>
<path fill-rule="evenodd" clip-rule="evenodd" d="M193.179 178.065L193.63 177.791C192.435 175.824 190.79 174.397 188.923 173.472C187.054 172.546 184.963 172.119 182.854 172.119C179.315 172.122 175.718 173.319 172.976 175.465C171.605 176.538 170.448 177.852 169.633 179.376C168.818 180.897 168.346 182.632 168.349 184.52C168.346 184.62 168.349 184.72 168.351 184.821C168.425 187.579 169.396 190.286 170.83 192.826C172.987 196.636 176.193 200.085 179.12 202.774C182.047 205.461 184.697 207.386 185.743 208.116L185.978 208.282L193.287 205.279L193.366 205.06C193.559 204.522 193.899 203.523 194.284 202.194C195.186 199.077 196.33 194.147 196.33 189.06C196.33 187.325 196.198 185.575 195.874 183.869C195.468 181.725 194.758 179.652 193.63 177.791L192.728 178.339C193.778 180.069 194.45 182.02 194.838 184.066C195.146 185.693 195.275 187.381 195.275 189.06C195.275 193.991 194.157 198.845 193.271 201.901C192.894 203.207 192.559 204.185 192.372 204.704L192.868 204.881L192.668 204.393L185.846 207.196L186.047 207.684L186.347 207.251C184.989 206.302 180.789 203.241 176.918 199.122C174.98 197.066 173.127 194.745 171.75 192.306C170.368 189.867 169.469 187.315 169.406 184.791C169.403 184.702 169.403 184.61 169.401 184.52C169.403 182.806 169.825 181.253 170.564 179.874C171.668 177.804 173.493 176.127 175.674 174.97C177.852 173.809 180.38 173.174 182.854 173.174C184.821 173.174 186.751 173.575 188.454 174.419C190.157 175.262 191.639 176.546 192.728 178.339L193.179 178.065Z" fill="black"/>
<path fill-rule="evenodd" clip-rule="evenodd" d="M192.868 204.881L192.124 204.615C192.074 204.752 192.037 204.855 192.011 204.926C191.998 204.96 191.987 204.986 191.982 205.002L191.974 205.021L191.971 205.026L192.71 205.313L192.396 204.588L186.192 207.275L186.505 208L186.946 207.344L186.938 207.338C186.906 207.317 186.753 207.214 186.498 207.035L186.047 207.684L186.345 208.417L193.168 205.614L192.868 204.881L192.124 204.615L192.868 204.881L192.567 204.151L184.407 207.502L185.593 208.332C185.894 208.543 186.062 208.657 186.068 208.659L186.426 208.897L193.327 205.909L193.445 205.601C193.448 205.595 193.509 205.437 193.614 205.147L194.215 203.473L192.567 204.151L192.868 204.881Z" fill="black"/>
<path fill-rule="evenodd" clip-rule="evenodd" d="M193.089 204.791L193.749 206.397L193.814 206.555L186.418 209.593L186.352 209.435L185.693 207.829L186.047 207.684L192.868 204.881L193.089 204.791Z" fill="#FFAF6A"/>
<path fill-rule="evenodd" clip-rule="evenodd" d="M193.319 212.23L190.956 213.2C189.754 213.693 188.383 213.121 187.89 211.921L187.623 211.272L194.331 208.517L194.598 209.163C195.091 210.365 194.518 211.736 193.319 212.23Z" fill="#FFAF6A"/>
<path fill-rule="evenodd" clip-rule="evenodd" d="M191.737 204.775C191.731 204.757 191.618 204.454 191.091 202.911C190.561 201.369 189.614 198.584 187.927 193.585C187.486 192.275 187.31 191.122 187.31 190.128C187.31 189.672 187.346 189.248 187.412 188.857L187.634 187.526L186.569 188.354C186.471 188.43 186.368 188.507 186.265 188.586C183.468 190.693 181.372 191.607 179.929 191.884L179.117 192.04L179.602 192.712C180.372 193.77 181.232 195.212 182.081 196.768C183.357 199.104 184.612 201.704 185.548 203.718C186.015 204.723 186.403 205.585 186.671 206.191C186.809 206.497 186.914 206.737 186.985 206.903C187.059 207.067 187.096 207.154 187.096 207.156C187.212 207.423 187.521 207.547 187.789 207.431C188.056 207.315 188.18 207.006 188.064 206.737C188.064 206.735 186.964 204.182 185.466 201.081C184.718 199.531 183.869 197.841 183.006 196.261C182.144 194.682 181.271 193.213 180.457 192.093L180.03 192.401L180.13 192.921C181.801 192.596 184.016 191.597 186.898 189.427V189.43C187.006 189.348 187.112 189.266 187.215 189.187L186.89 188.77L186.371 188.683C186.297 189.134 186.255 189.614 186.255 190.128C186.255 191.246 186.453 192.515 186.927 193.923C188.667 199.083 189.622 201.886 190.141 203.399C190.664 204.915 190.745 205.137 190.751 205.15C190.856 205.421 191.159 205.559 191.431 205.456C191.705 205.353 191.842 205.05 191.739 204.775" fill="black"/>
<path fill-rule="evenodd" clip-rule="evenodd" d="M195.275 208.52L186.708 212.04L185.741 209.685L194.308 206.168L195.275 208.52Z" fill="#FFAF6A"/>
<path fill-rule="evenodd" clip-rule="evenodd" d="M195.275 208.52L195.125 208.153L186.922 211.523L186.258 209.901L194.091 206.682L194.909 208.67L195.275 208.52L195.125 208.153L195.275 208.52L195.639 208.369L194.524 205.651L185.224 209.469L186.492 212.554L195.789 208.736L195.639 208.369L195.275 208.52Z" fill="black"/>
<path fill-rule="evenodd" clip-rule="evenodd" d="M161.343 163.033L167.974 170.189C168.175 170.403 168.507 170.413 168.72 170.216C168.934 170.018 168.947 169.686 168.749 169.472L162.118 162.316C161.92 162.102 161.585 162.089 161.372 162.287C161.158 162.485 161.145 162.819 161.343 163.033Z" fill="#081535"/>
<path fill-rule="evenodd" clip-rule="evenodd" d="M148.937 183.497L161.968 185.269C162.255 185.308 162.522 185.105 162.561 184.815C162.601 184.528 162.398 184.262 162.11 184.222L149.079 182.45C148.789 182.411 148.523 182.614 148.486 182.901C148.447 183.191 148.647 183.457 148.937 183.497Z" fill="#081535"/>
<path fill-rule="evenodd" clip-rule="evenodd" d="M154.588 197.232L163.502 195.526C163.787 195.47 163.974 195.193 163.922 194.909C163.866 194.621 163.589 194.434 163.305 194.489L154.39 196.195C154.102 196.251 153.915 196.525 153.971 196.812C154.026 197.097 154.303 197.284 154.588 197.232Z" fill="#081535"/>
<path fill-rule="evenodd" clip-rule="evenodd" d="M197.516 156.787L192.873 168.019C192.762 168.288 192.892 168.597 193.161 168.707C193.43 168.818 193.738 168.691 193.849 168.423L198.492 157.19C198.603 156.921 198.476 156.613 198.205 156.502C197.936 156.391 197.627 156.518 197.516 156.787Z" fill="#081535"/>
<path fill-rule="evenodd" clip-rule="evenodd" d="M213.864 169.562L201.226 178.627C200.989 178.798 200.936 179.128 201.105 179.362C201.274 179.6 201.603 179.655 201.841 179.484L214.479 170.419C214.716 170.25 214.769 169.92 214.6 169.683C214.429 169.446 214.102 169.393 213.864 169.562Z" fill="#081535"/>
<path fill-rule="evenodd" clip-rule="evenodd" d="M277.695 353.865C277.695 353.865 278.839 350.266 281.621 346.145L277.695 353.865Z" fill="#FEF9E6"/>
<path fill-rule="evenodd" clip-rule="evenodd" d="M278.198 354.026V354.018C278.259 353.834 279.403 350.372 282.056 346.44C282.219 346.198 282.156 345.871 281.914 345.707C281.674 345.544 281.347 345.61 281.183 345.85C278.362 350.034 277.202 353.675 277.191 353.707C277.104 353.984 277.257 354.279 277.534 354.369C277.813 354.456 278.109 354.303 278.198 354.026Z" fill="black"/>
<path fill-rule="evenodd" clip-rule="evenodd" d="M164.942 351.585C164.942 351.585 169.348 353.586 171.099 362.651L164.942 351.585Z" fill="#FEF9E6"/>
<path fill-rule="evenodd" clip-rule="evenodd" d="M164.723 352.064L164.821 351.848L164.721 352.064H164.723L164.821 351.848L164.721 352.064C164.726 352.067 165.762 352.552 167.012 354.124C168.262 355.698 169.733 358.361 170.579 362.751C170.635 363.036 170.912 363.223 171.199 363.168C171.484 363.112 171.671 362.836 171.616 362.551C170.727 357.944 169.153 355.091 167.774 353.388C166.395 351.682 165.222 351.131 165.158 351.105C164.895 350.983 164.581 351.102 164.462 351.366C164.341 351.632 164.457 351.943 164.723 352.064Z" fill="black"/>
<path fill-rule="evenodd" clip-rule="evenodd" d="M160.412 387.386C160.483 387.17 170.498 361.362 170.498 361.362C170.498 361.362 168.607 354.82 164.942 351.943C164.942 351.943 162.856 351.221 163.431 357.116C164.006 363.015 156.243 386.237 156.243 386.237L160.412 387.386Z" fill="#FCAA23"/>
<path fill-rule="evenodd" clip-rule="evenodd" d="M147.648 386.566C147.648 386.566 150.965 380.829 153.912 381.324C156.863 381.82 163.146 384.834 166.031 385.541C168.916 386.245 172.507 386.052 172.507 386.052C172.507 386.052 177.25 391.566 176.417 394.45C175.584 397.337 168.789 402.466 168.789 402.466C168.789 402.466 174.68 406.247 174.105 407.209C173.533 408.172 169.686 410.094 169.686 410.094L147.31 409.324C147.31 409.324 141.293 404.196 141.351 402.466C141.412 400.734 143.015 393.746 142.822 391.629C142.63 389.514 142.472 386.885 147.648 386.566Z" fill="white"/>
<path fill-rule="evenodd" clip-rule="evenodd" d="M147.648 386.566L148.104 386.83L148.112 386.817C148.193 386.68 148.963 385.385 150.031 384.151C150.566 383.534 151.173 382.936 151.79 382.503C152.096 382.29 152.404 382.115 152.7 381.999C152.997 381.881 153.28 381.823 153.546 381.823C153.641 381.823 153.733 381.831 153.825 381.844C154.508 381.96 155.439 382.234 156.473 382.593C158.028 383.131 159.829 383.858 161.514 384.518C163.204 385.179 164.768 385.773 165.907 386.052C167.848 386.524 170.036 386.603 171.355 386.603C172.072 386.603 172.528 386.579 172.536 386.579L172.507 386.052L172.106 386.398L172.117 386.408C172.225 386.535 173.211 387.705 174.16 389.187C174.635 389.926 175.099 390.743 175.439 391.534C175.782 392.325 175.99 393.095 175.987 393.704C175.987 393.925 175.961 394.126 175.911 394.305C175.829 394.595 175.652 394.951 175.405 395.341C174.972 396.022 174.318 396.794 173.583 397.556C172.48 398.701 171.199 399.827 170.194 400.665C169.693 401.082 169.261 401.427 168.955 401.67C168.802 401.791 168.678 401.883 168.597 401.949C168.554 401.981 168.523 402.004 168.502 402.02L168.47 402.044L167.866 402.5L168.504 402.909C168.504 402.909 168.523 402.922 168.56 402.946C168.85 403.133 170.165 403.998 171.397 404.937C172.011 405.406 172.607 405.896 173.029 406.318C173.24 406.527 173.406 406.719 173.506 406.867C173.556 406.938 173.591 406.999 173.606 407.038L173.617 407.072L173.622 407.07L173.617 407.072L173.622 407.07L173.617 407.072L173.73 407.057H173.617V407.072L173.73 407.057H173.617H173.849L173.651 406.94C173.625 406.983 173.617 407.035 173.617 407.057H173.849L173.651 406.94V406.938C173.627 406.983 173.535 407.093 173.398 407.217C173.155 407.439 172.776 407.71 172.357 407.982C171.726 408.391 170.996 408.805 170.426 409.111C170.142 409.266 169.896 409.395 169.722 409.485C169.635 409.527 169.567 409.564 169.519 409.588C169.475 409.612 169.451 409.622 169.451 409.622L169.686 410.094L169.704 409.567L147.328 408.799L147.31 409.324L147.653 408.923C147.653 408.923 147.629 408.905 147.587 408.868C147.265 408.591 145.802 407.315 144.428 405.915C143.742 405.216 143.078 404.486 142.601 403.848C142.363 403.531 142.171 403.236 142.047 402.993C141.92 402.751 141.876 402.558 141.878 402.492V402.487L141.802 402.484L141.878 402.49V402.487L141.802 402.484L141.878 402.49V402.484C141.884 402.31 141.91 402.044 141.955 401.72C142.108 400.578 142.458 398.714 142.772 396.871C142.928 395.945 143.075 395.025 143.186 394.194C143.294 393.361 143.365 392.62 143.365 392.035C143.365 391.871 143.36 391.724 143.347 391.581C143.313 391.196 143.278 390.804 143.278 390.427C143.278 390.01 143.321 389.612 143.429 389.253C143.51 388.984 143.626 388.739 143.801 388.51C144.059 388.169 144.444 387.858 145.064 387.605C145.681 387.349 146.532 387.162 147.682 387.091L147.964 387.075L148.104 386.83L147.648 386.566L147.616 386.039C146.524 386.108 145.644 386.274 144.924 386.529C144.386 386.719 143.94 386.962 143.576 387.249C143.031 387.676 142.677 388.209 142.479 388.763C142.282 389.316 142.226 389.883 142.224 390.427C142.226 390.864 142.261 391.286 142.298 391.679C142.305 391.777 142.311 391.898 142.311 392.035C142.311 392.607 142.226 393.456 142.092 394.411C141.891 395.845 141.588 397.53 141.327 399.012C141.198 399.753 141.079 400.444 140.99 401.029C140.9 401.617 140.837 402.094 140.824 402.447L141.351 402.466L140.826 402.442L140.824 402.492C140.824 402.677 140.861 402.848 140.916 403.02C141.021 403.341 141.198 403.66 141.42 404.001C141.804 404.589 142.34 405.229 142.93 405.873C144.697 407.792 146.959 409.72 146.967 409.728L147.107 409.846L169.802 410.627L169.92 410.566C169.928 410.563 170.896 410.078 171.945 409.469C172.47 409.163 173.016 408.826 173.48 408.494C173.712 408.327 173.923 408.164 174.105 408C174.287 407.834 174.44 407.676 174.558 407.478C174.637 407.347 174.672 407.191 174.672 407.057C174.672 406.882 174.624 406.735 174.566 406.603C174.455 406.353 174.287 406.131 174.084 405.899C173.725 405.493 173.242 405.063 172.71 404.628C171.115 403.331 169.082 402.028 169.074 402.02L168.789 402.466L169.105 402.885C169.113 402.88 170.822 401.591 172.644 399.929C173.556 399.099 174.498 398.176 175.275 397.261C175.663 396.805 176.011 396.351 176.296 395.908C176.578 395.463 176.799 395.03 176.923 394.598C177.008 394.308 177.042 394.01 177.042 393.704C177.039 392.839 176.763 391.932 176.372 391.036C175.782 389.691 174.919 388.372 174.202 387.376C173.485 386.382 172.913 385.717 172.905 385.709L172.736 385.512L172.478 385.525L172.459 385.527C172.372 385.53 171.961 385.549 171.355 385.549C170.084 385.551 167.948 385.467 166.155 385.026C165.475 384.86 164.552 384.547 163.521 384.159C161.97 383.579 160.167 382.841 158.469 382.197C157.62 381.876 156.797 381.578 156.04 381.335C155.284 381.092 154.595 380.905 154.002 380.805C153.849 380.779 153.696 380.768 153.546 380.768C153.108 380.768 152.681 380.868 152.275 381.032C151.566 381.322 150.912 381.799 150.313 382.345C149.414 383.168 148.644 384.148 148.088 384.929C147.534 385.712 147.197 386.292 147.191 386.3L147.648 386.566L147.616 386.039L147.648 386.566Z" fill="black"/>
<path fill-rule="evenodd" clip-rule="evenodd" d="M153.108 396.135C153.116 396.138 155.508 397.722 158.374 399.315C159.806 400.109 161.359 400.908 162.798 401.511C163.518 401.812 164.212 402.068 164.855 402.247C165.498 402.429 166.089 402.537 166.624 402.54C166.962 402.537 167.278 402.495 167.573 402.379C168.185 402.134 168.657 401.804 168.976 401.382C169.298 400.966 169.443 400.465 169.44 399.966C169.44 399.56 169.351 399.154 169.203 398.748C168.982 398.142 168.631 397.535 168.204 396.937C167.774 396.335 167.268 395.745 166.735 395.178C164.483 392.8 159.995 388.249 159.995 388.246C159.79 388.04 159.458 388.038 159.249 388.241C159.041 388.446 159.041 388.779 159.244 388.987C159.244 388.987 159.315 389.058 159.442 389.187C160.33 390.089 164.011 393.836 165.968 395.903C166.648 396.62 167.268 397.377 167.705 398.089C167.924 398.445 168.096 398.79 168.212 399.109C168.328 399.428 168.386 399.718 168.386 399.966C168.383 400.275 168.309 400.515 168.135 400.747C167.961 400.976 167.666 401.206 167.181 401.398C167.057 401.451 166.867 401.485 166.624 401.485C166.237 401.485 165.725 401.398 165.14 401.232C164.114 400.945 162.875 400.425 161.601 399.811C159.692 398.888 157.712 397.746 156.209 396.836C155.46 396.383 154.83 395.987 154.387 395.705C154.166 395.563 153.992 395.45 153.873 395.373C153.812 395.334 153.767 395.305 153.738 395.286C153.707 395.265 153.691 395.254 153.691 395.254C153.448 395.094 153.121 395.159 152.961 395.405C152.8 395.647 152.866 395.974 153.108 396.135Z" fill="black"/>
<path fill-rule="evenodd" clip-rule="evenodd" d="M161.129 389.538C161.129 389.538 163.969 390.123 166.833 389.538C169.696 388.953 170.608 389.804 170.487 390.595C170.366 391.389 166.651 395.225 166.651 395.225L161.129 389.538Z" fill="#FCAA23"/>
<path fill-rule="evenodd" clip-rule="evenodd" d="M163.191 392.285L167.078 396.351L157.462 359.83C157.462 359.83 157.343 358.741 156.628 358.44C155.911 358.142 154.598 358.527 154.479 359.69L163.191 392.285Z" fill="#081535"/>
<path fill-rule="evenodd" clip-rule="evenodd" d="M165.815 401.931L166.693 405.287L169.409 410.566L169.622 404.388L168.726 400.789C168.726 400.789 167.819 402.516 165.815 401.931Z" fill="#081535"/>
<path fill-rule="evenodd" clip-rule="evenodd" d="M150.965 408.813L155.645 389.351C155.645 389.351 156.478 388.552 152.76 381.949C152.76 381.949 151.35 382.398 148.014 387.141C148.014 387.141 142.245 386.079 143.334 392.285C143.334 392.285 141.198 402.144 142.01 402.977C142.822 403.811 145.356 408.022 147.648 408.813H150.965Z" fill="#FCAA23"/>
<path fill-rule="evenodd" clip-rule="evenodd" d="M168.781 485.518C168.781 485.518 168.781 526.496 232.923 518.301C232.923 518.301 239.204 540.371 249.917 553.383H291.037C291.037 553.383 286.293 437.638 242.942 447.989C199.592 458.344 168.781 485.518 168.781 485.518Z" fill="#5856D6"/>
<path fill-rule="evenodd" clip-rule="evenodd" d="M168.781 485.518H168.254C168.254 485.55 168.254 487.704 169.021 490.932C169.593 493.349 170.598 496.371 172.354 499.548C174.988 504.31 179.326 509.415 186.421 513.315C193.514 517.217 203.349 519.912 216.973 519.91C221.817 519.91 227.14 519.569 232.991 518.823L232.923 518.301L232.417 518.443C232.419 518.457 233.996 523.991 236.915 531.161C239.836 538.332 244.095 547.139 249.508 553.718L249.666 553.91H291.588L291.564 553.362C291.564 553.344 290.478 526.813 284.579 500.245C281.629 486.958 277.481 473.663 271.63 463.639C268.701 458.629 265.347 454.431 261.479 451.473C257.613 448.514 253.223 446.806 248.3 446.808C246.539 446.808 244.714 447.024 242.821 447.478C221.071 452.672 202.484 462.08 189.329 470.188C176.172 478.296 168.449 485.107 168.43 485.123L168.254 485.278V485.518H168.781L169.129 485.914C169.129 485.914 169.156 485.887 169.216 485.837C171.028 484.261 201.211 458.494 243.066 448.504C244.883 448.069 246.626 447.863 248.3 447.863C252.975 447.866 257.118 449.469 260.838 452.311C264.092 454.798 267.013 458.238 269.621 462.362C274.185 469.579 277.787 478.89 280.608 488.785C284.84 503.628 287.319 519.791 288.735 532.236C289.444 538.459 289.89 543.754 290.156 547.493C290.288 549.359 290.378 550.839 290.433 551.851C290.462 552.357 290.48 552.745 290.494 553.009C290.504 553.27 290.512 553.404 290.512 553.404L291.037 553.383V552.856H249.917V553.383L250.323 553.048C245.025 546.615 240.788 537.879 237.89 530.762C236.443 527.203 235.325 524.049 234.573 521.784C234.196 520.653 233.912 519.743 233.719 519.118C233.624 518.807 233.55 518.565 233.503 518.401C233.479 518.32 233.461 518.259 233.45 518.217C233.437 518.175 233.432 518.156 233.432 518.156L233.308 517.718L232.857 517.776C227.045 518.52 221.767 518.855 216.973 518.855C204.986 518.855 196.029 516.751 189.335 513.616C184.314 511.261 180.56 508.329 177.746 505.252C173.527 500.64 171.415 495.696 170.361 491.905C169.833 490.011 169.57 488.406 169.438 487.277C169.372 486.713 169.34 486.27 169.324 485.967C169.316 485.816 169.311 485.703 169.308 485.626C169.308 485.59 169.308 485.561 169.308 485.542V485.518H168.781L169.129 485.914L168.781 485.518Z" fill="black"/>
<path fill-rule="evenodd" clip-rule="evenodd" d="M233.387 518.045L233.382 518.04C233.215 517.734 227.022 506.227 224.272 483.441C224.237 483.153 223.974 482.945 223.684 482.982C223.396 483.016 223.191 483.28 223.225 483.567C226.038 506.863 232.435 518.504 232.461 518.554C232.601 518.81 232.923 518.902 233.179 518.762C233.434 518.62 233.527 518.301 233.387 518.045Z" fill="black"/>
<path fill-rule="evenodd" clip-rule="evenodd" d="M102.082 441.231H580.444V429.443H102.082V441.231Z" fill="#222831"/>
<path fill-rule="evenodd" clip-rule="evenodd" d="M223.246 485.133C223.246 485.133 223.053 482.133 218.645 487.802C214.233 493.473 217.877 506.415 209.25 510.441C200.623 514.465 194.01 515.424 194.01 515.424C194.01 515.424 207.238 521.655 231.871 517.724C231.871 517.724 228.037 515.329 223.246 485.133Z" fill="#302EA7"/>
<path fill-rule="evenodd" clip-rule="evenodd" d="M188.588 288.395C188.878 289.352 188.641 290.272 188.056 290.449C187.47 290.628 186.758 289.998 186.468 289.041C186.176 288.086 186.416 287.166 187.001 286.987C187.586 286.807 188.296 287.44 188.588 288.395Z" fill="black"/>
<path fill-rule="evenodd" clip-rule="evenodd" d="M209.403 283.121C209.348 284.118 208.799 284.901 208.174 284.867C207.549 284.832 207.088 283.997 207.143 282.997C207.199 281.998 207.747 281.218 208.372 281.252C208.997 281.286 209.458 282.122 209.403 283.121Z" fill="black"/>
<path fill-rule="evenodd" clip-rule="evenodd" d="M182.273 282.71L182.168 282.689L182.271 282.713L182.273 282.71L182.168 282.689L182.271 282.713C182.273 282.697 182.445 281.937 183.001 281.215C183.281 280.854 183.655 280.498 184.153 280.234C184.654 279.968 185.282 279.788 186.097 279.788C186.35 279.788 186.619 279.804 186.909 279.844C187.128 279.873 187.325 279.72 187.354 279.504C187.383 279.287 187.23 279.09 187.014 279.061C186.693 279.016 186.387 278.997 186.097 278.997C185.15 278.995 184.372 279.214 183.753 279.551C182.824 280.055 182.26 280.806 181.933 281.421C181.604 282.038 181.503 282.528 181.498 282.552C181.453 282.765 181.59 282.976 181.804 283.018C182.02 283.063 182.229 282.926 182.273 282.71Z" fill="black"/>
<path fill-rule="evenodd" clip-rule="evenodd" d="M204.754 274.984L204.607 274.802L204.752 274.987L204.754 274.984L204.607 274.802L204.752 274.987L204.765 274.976C204.889 274.884 205.962 274.119 207.768 274.122C208.807 274.122 210.094 274.37 211.607 275.158C211.802 275.258 212.04 275.182 212.14 274.99C212.243 274.794 212.166 274.557 211.974 274.457C210.355 273.613 208.934 273.328 207.768 273.331C206.666 273.331 205.796 273.582 205.2 273.837C204.604 274.093 204.28 274.351 204.259 274.37C204.087 274.507 204.061 274.755 204.198 274.926C204.335 275.095 204.583 275.121 204.754 274.984Z" fill="black"/>
<path fill-rule="evenodd" clip-rule="evenodd" d="M201.704 230.602C201.698 230.613 200.319 232.968 198.94 236.648C197.564 240.329 196.182 245.334 196.182 250.65C196.182 253.149 196.488 255.715 197.245 258.241C197.284 258.381 197.432 258.46 197.572 258.418C197.712 258.375 197.791 258.23 197.748 258.091C197.01 255.62 196.71 253.104 196.71 250.65C196.71 245.426 198.07 240.474 199.436 236.833C200.116 235.014 200.799 233.519 201.311 232.482C201.566 231.963 201.777 231.56 201.928 231.285C202.002 231.148 202.06 231.043 202.099 230.974C202.118 230.937 202.133 230.911 202.144 230.895L202.157 230.869C202.231 230.742 202.189 230.581 202.065 230.507C201.938 230.434 201.777 230.476 201.704 230.602Z" fill="white"/>
<path fill-rule="evenodd" clip-rule="evenodd" d="M191.921 259.087L191.919 259.082C191.855 258.953 190.7 256.498 190.7 252.975C190.7 251.596 190.877 250.056 191.362 248.424C191.404 248.284 191.325 248.137 191.186 248.097C191.046 248.055 190.898 248.134 190.856 248.274C190.355 249.959 190.173 251.551 190.173 252.975C190.173 256.73 191.439 259.298 191.449 259.322C191.513 259.451 191.671 259.507 191.8 259.441C191.932 259.377 191.985 259.219 191.921 259.087Z" fill="white"/>
<path fill-rule="evenodd" clip-rule="evenodd" d="M176.649 267.164L176.647 267.158C176.562 267.053 174.941 264.949 174.943 261.555C174.943 260.007 175.275 258.191 176.251 256.155C176.312 256.023 176.256 255.868 176.127 255.804C175.995 255.741 175.837 255.797 175.774 255.928C174.767 258.03 174.413 259.931 174.416 261.555C174.416 265.236 176.219 267.47 176.238 267.493C176.33 267.607 176.496 267.625 176.61 267.533C176.723 267.443 176.742 267.277 176.649 267.164Z" fill="white"/>
<path fill-rule="evenodd" clip-rule="evenodd" d="M238.869 272.086C238.869 272.1 238.9 273.821 239.449 275.97C240 278.117 241.06 280.703 243.164 282.415C243.277 282.507 243.443 282.488 243.536 282.375C243.625 282.264 243.61 282.098 243.496 282.006C241.529 280.411 240.493 277.929 239.96 275.841C239.694 274.797 239.552 273.85 239.478 273.17C239.441 272.83 239.42 272.553 239.409 272.366C239.404 272.271 239.401 272.197 239.399 272.147C239.396 272.1 239.396 272.076 239.396 272.076C239.393 271.931 239.272 271.815 239.127 271.817C238.982 271.82 238.866 271.939 238.869 272.086Z" fill="white"/>
<path fill-rule="evenodd" clip-rule="evenodd" d="M190.927 309.164C190.927 309.164 190.93 309.18 190.94 309.215C191.07 309.739 192.135 314.166 192.135 319.163C192.135 320.684 192.037 322.259 191.784 323.791C191.76 323.936 191.858 324.07 192 324.094C192.145 324.117 192.28 324.023 192.304 323.878C192.562 322.311 192.662 320.708 192.662 319.163C192.662 313.755 191.439 309.043 191.436 309.03C191.399 308.89 191.257 308.806 191.114 308.843C190.975 308.88 190.89 309.022 190.927 309.164Z" fill="white"/>
<path fill-rule="evenodd" clip-rule="evenodd" d="M238.378 296.455C238.378 296.455 238.386 296.476 238.399 296.521C238.61 297.178 240.314 302.749 240.314 309.51C240.314 312.663 239.942 316.075 238.882 319.369C238.837 319.506 238.913 319.656 239.051 319.701C239.19 319.746 239.338 319.669 239.383 319.53C240.466 316.17 240.841 312.706 240.841 309.51C240.841 302.206 238.884 296.305 238.879 296.289C238.834 296.152 238.684 296.076 238.547 296.123C238.407 296.168 238.333 296.318 238.378 296.455Z" fill="white"/>
<path fill-rule="evenodd" clip-rule="evenodd" d="M384.03 516.811C384.03 516.814 383.927 516.909 383.724 517.091C382.218 518.462 375.228 524.708 365.609 531.517C355.993 538.325 343.748 545.694 331.751 549.32C331.611 549.362 331.532 549.51 331.574 549.649C331.616 549.789 331.764 549.866 331.904 549.826C344.798 545.926 357.91 537.771 367.806 530.591C377.704 523.411 384.383 517.204 384.388 517.199C384.494 517.099 384.502 516.933 384.402 516.827C384.301 516.719 384.135 516.714 384.03 516.811Z" fill="white"/>
<path fill-rule="evenodd" clip-rule="evenodd" d="M99.569 428.797V441.231C99.569 441.524 99.8037 441.759 100.096 441.759C100.386 441.759 100.624 441.524 100.624 441.231V428.797C100.624 428.504 100.386 428.269 100.096 428.269C99.8037 428.269 99.569 428.504 99.569 428.797Z" fill="black"/>
</svg>
